<?xml version="1.0" encoding="UTF-8" standalone="no"?>
<svg
   width="320"
   height="128"
   version="1.1"
   id="svg3"
   viewBox="0 0 320 128"
   xmlns="http://www.w3.org/2000/svg"
   xmlns:svg="http://www.w3.org/2000/svg">
  <defs
     id="defs3" />
  <g
     fill="none"
     fill-rule="evenodd"
     id="g3"
     transform="scale(3.1999465)">
    <path
       fill="#0058ab"
       d="M 99.985669,40 H 0 V 0 h 100 v 40 z"
       id="path1" />
    <path
       fill="#fbd914"
       d="M 2,20 C 2,29.8325 22.1163,38 50.0072,38 77.898,38 98,29.8325 98,20 98,10.1675 77.8837,2 50.0072,2 22.1306,2 2,10.1675 2,20 Z"
       id="path2" />
    <path
       fill="#0058a3"
       fill-rule="nonzero"
       d="m 46.448,26.0047 c 0.3153,0.4477 0.6593,0.8674 1.0606,1.2452 H 36.6874 c 0,-0.4198 -0.4156,-1.2732 -0.8743,-1.9447 -0.4586,-0.6716 -2.9382,-4.351 -2.9382,-4.351 v 5.0505 c 0,0.4197 0,0.8254 0.215,1.2452 h -9.0152 c 0.215,-0.4198 0.215,-0.8255 0.215,-1.2452 V 14.0008 c 0,-0.4197 0,-0.8254 -0.215,-1.2451 h 9.0152 c -0.215,0.4197 -0.215,0.8254 -0.215,1.2451 v 5.2465 c 0,0 2.8809,-3.6655 3.5402,-4.519 0.5016,-0.6435 1.118,-1.553 1.118,-1.9726 h 9.4022 c -0.645,0.4197 -1.3616,1.1752 -1.9493,1.8747 -0.516,0.6156 -3.4398,4.0992 -3.4398,4.0992 0,0 4.3284,6.4497 4.9017,7.2751 z m 2.8378,-12.0039 v 12.0039 c 0,0.4197 0,0.8254 -0.215,1.2452 h 17.3999 v -4.0293 c -0.43,0.2098 -0.8457,0.2098 -1.2756,0.2098 h -7.324 v -1.9027 h 7.0373 v -3.05 h -7.0373 v -1.9166 h 7.324 c 0.43,0 0.8456,0 1.2756,0.1959 V 12.7417 H 49.0708 c 0.215,0.4337 0.215,0.8394 0.215,1.2591 z m 41.2924,12.0039 c 0.1433,0.4617 0.387,0.8814 0.7023,1.2452 h -9.4309 c 0.043,-0.4198 -0.1146,-0.8255 -0.2866,-1.2452 0,0 -0.1434,-0.3358 -0.344,-0.8254 l -0.086,-0.2099 h -5.4321 l -0.086,0.2238 c 0,0 -0.1577,0.4058 -0.301,0.8255 -0.1433,0.4197 -0.301,0.8254 -0.2436,1.2451 h -7.4387 a 3.6406,3.6406 0 0 0 0.6737,-1.2451 l 4.4574,-12.0039 c 0.1577,-0.4197 0.3153,-0.8254 0.258,-1.2451 h 12.5697 c -0.1146,0.4197 0.1147,0.8254 0.2724,1.2451 0.3726,0.9094 4.4,11.1784 4.7154,11.9899 z M 79.9434,21.9055 78.6248,18.5477 C 78.5101,18.24 78.4098,17.9182 78.3381,17.5964 a 5.5011,5.5011 0 0 1 -0.258,0.9513 c -0.043,0.14 -0.602,1.609 -1.247,3.3578 z M 19.8035,12.7557 H 10 c 0.215,0.4197 0.215,0.8254 0.215,1.2451 v 12.0039 c 0,0.4197 0,0.8254 -0.215,1.2452 h 9.8035 c -0.215,-0.4198 -0.215,-0.8255 -0.215,-1.2452 V 14.0008 c 0,-0.4197 0,-0.8254 0.215,-1.2451 z m 67.7648,1.1472 c -0.043,-1.0213 0.774,-1.8747 1.8203,-1.9027 h 0.129 c 1.0606,-0.014 1.9349,0.7974 1.9492,1.8327 v 0.07 c 0.0287,1.0493 -0.817,1.9307 -1.9062,1.9587 -1.075,0.028 -1.978,-0.7975 -2.0066,-1.8608 0.0143,-0.028 0.0143,-0.07 0.0143,-0.098 z m 0.387,0 c 0,0.8394 0.7023,1.525 1.5623,1.525 0.86,0 1.5622,-0.6856 1.5622,-1.525 0,-0.8394 -0.7023,-1.525 -1.5622,-1.525 -0.8313,-0.028 -1.5336,0.6016 -1.5623,1.413 z m 1.1753,1.1332 h -0.344 v -2.2944 h 0.8743 c 0.4157,0.014 0.731,0.3357 0.731,0.7415 0,0.2798 -0.1577,0.5316 -0.4157,0.6715 l 0.5017,0.8814 h -0.387 l -0.4587,-0.8114 h -0.5016 z m 0,-1.1332 h 0.473 c 0.2293,0.014 0.43,-0.154 0.43,-0.3778 0,-0.2238 -0.1577,-0.4197 -0.387,-0.4197 h -0.516 z"
       id="path3" />
  </g>
</svg>
