<?xml version="1.0" encoding="UTF-8" standalone="no"?>
<!-- Generator: Adobe Illustrator 19.2.1, SVG Export Plug-In . SVG Version: 6.00 Build 0)  -->

<svg
   version="1.1"
   id="Layer_1"
   x="0px"
   y="0px"
   viewBox="0 0 276.69013 128"
   xml:space="preserve"
   width="276.69012"
   height="128"
   sodipodi:docname="jysk_logo_ink.svg"
   inkscape:version="1.3 (0e150ed6c4, 2023-07-21)"
   xmlns:inkscape="http://www.inkscape.org/namespaces/inkscape"
   xmlns:sodipodi="http://sodipodi.sourceforge.net/DTD/sodipodi-0.dtd"
   xmlns="http://www.w3.org/2000/svg"
   xmlns:svg="http://www.w3.org/2000/svg"><sodipodi:namedview
   id="namedview1"
   pagecolor="#ffffff"
   bordercolor="#666666"
   borderopacity="1.0"
   inkscape:showpageshadow="2"
   inkscape:pageopacity="0.0"
   inkscape:pagecheckerboard="0"
   inkscape:deskcolor="#d1d1d1"
   inkscape:zoom="1.9437454"
   inkscape:cx="109.58225"
   inkscape:cy="32.154417"
   inkscape:window-width="1920"
   inkscape:window-height="1013"
   inkscape:window-x="-9"
   inkscape:window-y="-9"
   inkscape:window-maximized="1"
   inkscape:current-layer="Layer_1" /><defs
   id="defs8" />&#10;<style
   type="text/css"
   id="style1">&#10;	.st0{fill:#034694;}&#10;	.st1{fill:#FFFFFF;}&#10;</style>&#10;<g
   id="g8"
   transform="scale(0.35734152)">&#10;	<rect
   class="st0"
   width="774.29999"
   height="358.20001"
   id="rect1"
   x="0"
   y="0" />&#10;	<g
   id="g4">&#10;		<path
   class="st1"
   d="m 261.5,94.1 v 110.3 c 0,32.6 -23,56 -55.8,56 -16.9,0 -35.6,-7.4 -48.9,-17.8 L 177,192 c 3,7.8 6.5,17.2 15.8,17.2 9.6,0 10.4,-10.9 10.4,-17.8 V 94.1 Z"
   id="path1" />&#10;		<path
   class="st1"
   d="m 338,94.1 18.2,42.8 h 1.7 c 1.7,-5.2 3.3,-10.4 5.4,-15.4 L 375,94.1 h 67 l -56,93.1 v 70.6 H 327.8 V 187.2 L 270.7,94.1 Z"
   id="path2" />&#10;		<path
   class="st1"
   d="m 447.4,199.2 3,2.4 c 10.6,8.3 23.4,15 37.1,15 5.9,0 15.2,-2.4 15.2,-9.8 0,-7.4 -7.8,-8 -13.2,-9.1 l -11.9,-2.2 c -23.2,-4.1 -42.8,-17.8 -42.8,-43.4 0,-38.9 35.4,-60.6 71,-60.6 18.7,0 35.8,4.6 51.9,14.3 l -16.1,41.9 c -10.2,-6.9 -21.7,-12.4 -34.5,-12.4 -5.2,0 -12.8,2 -12.8,8.7 0,6.1 7.4,6.9 11.9,8 l 13.5,3 c 25.2,5.6 43.4,19.1 43.4,46.9 0,39.1 -35.6,58.4 -71,58.4 -20.6,0 -44.5,-5.6 -63,-15 z"
   id="path3" />&#10;		<path
   class="st1"
   d="m 580.8,94.1 h 58 l -1.3,71 h 1.3 c 1.3,-6.7 5,-12.6 8.2,-18.5 l 28.7,-52.5 h 64.9 l -51.2,79.7 56.7,84 h -69 l -28.2,-49.5 c -3.5,-6.3 -8.7,-12.4 -10,-19.1 h -1.3 l 1.3,68.6 h -58 V 94.1 Z"
   id="path4" />&#10;	</g>&#10;	<g
   id="g7">&#10;		<g
   id="g6">&#10;			<path
   class="st1"
   d="m 57.7,59.8 c -2.4,0.1 -4.5,0.9 -6,2.5 -1.5,1.5 -2.3,3.7 -2.2,6.1 0.1,3.7 2.1,7.8 5.4,11 5.7,5.5 13.2,6.6 17.2,2.5 1.5,-1.6 2.2,-3.6 2.2,-5.9 0,-3.6 -1.9,-7.8 -5.4,-11.2 -3.3,-3.3 -7.5,-5.1 -11.2,-5 z m 11.2,4.9 z"
   id="path5" />&#10;			<path
   class="st1"
   d="m 81.1,358.1 c 2.4,-8.8 3.1,-18 3.1,-18 0.3,-2.5 0.5,-5 0.6,-7.6 1.5,-31 -9.6,-69.5 -32.5,-100.3 -23.2,-31.3 -37.9,-54 -37.9,-73 0,-19 13.9,-28.1 23.7,-30.3 9.9,-2.2 35.8,-2.2 45.2,-10.2 9.3,-7.8 14.6,-19 13.5,-32.8 C 95.8,72 92.4,41.7 45.5,39.5 29,38.8 11.7,45.5 0,54.5 V 30 c 10.7,-5.3 26.8,-10.9 47.3,-10.9 38.7,0 56.5,24.8 56.5,24.8 0,0 23,9.5 39,21.9 16.1,12.4 29.2,25.9 30.3,27.7 1.1,1.8 4,8.8 -5.8,12 -9.9,3.3 -29.5,6.9 -49.6,6.9 0,0 -13.1,23.4 -33.9,30.6 -20.8,7.3 -44.9,0.3 -46,19.3 -0.7,13.1 10.9,28.8 15.3,35 4.4,6.2 54.3,55.9 51.4,132.1 -0.6,16.4 -3.2,28.6 -3.2,28.6 z M 118.9,93.2 c 0,0 11.3,1.5 20.8,1.8 9.5,0.4 8,-4 8,-4 -4.4,-3.6 -30.3,-18.2 -30.3,-18.2 -3.6,9.4 1.5,20.4 1.5,20.4 z"
   id="path6" />&#10;		</g>&#10;	</g>&#10;</g>&#10;</svg>
