<svg version="1.1" viewBox="0.0 0.0 426.3622047244094 347.1968503937008" fill="none" stroke="none" stroke-linecap="square" stroke-miterlimit="10" xmlns:xlink="http://www.w3.org/1999/xlink" xmlns="http://www.w3.org/2000/svg"><clipPath id="p.0"><path d="m0 0l426.3622 0l0 347.19684l-426.3622 0l0 -347.19684z" clip-rule="nonzero"/></clipPath><g clip-path="url(#p.0)"><path fill="#000000" fill-opacity="0.0" d="m0 0l426.3622 0l0 347.19684l-426.3622 0z" fill-rule="evenodd"/><path fill="#efefef" fill-opacity="0.5255" d="m193.091 120.95102l0 0c0 -26.231354 21.624298 -47.496063 48.299225 -47.496063l0 0c12.809738 0 25.094849 5.004036 34.15271 13.91127c9.057831 8.907242 14.146484 20.988052 14.146484 33.584793l0 0c0 26.231354 -21.624268 47.496063 -48.299194 47.496063l0 0c-26.674927 0 -48.299225 -21.26471 -48.299225 -47.496063z" fill-rule="evenodd"/><path stroke="#999999" stroke-width="1.0" stroke-linejoin="round" stroke-linecap="butt" d="m193.091 120.95102l0 0c0 -26.231354 21.624298 -47.496063 48.299225 -47.496063l0 0c12.809738 0 25.094849 5.004036 34.15271 13.91127c9.057831 8.907242 14.146484 20.988052 14.146484 33.584793l0 0c0 26.231354 -21.624268 47.496063 -48.299194 47.496063l0 0c-26.674927 0 -48.299225 -21.26471 -48.299225 -47.496063z" fill-rule="evenodd"/><path fill="#fffd5b" fill-opacity="0.5569" d="m143.29877 120.95102l0 0c0 -26.231354 21.624298 -47.496063 48.29921 -47.496063l0 0c12.809753 0 25.094849 5.004036 34.152695 13.91127c9.057861 8.907242 14.146515 20.988052 14.146515 33.584793l0 0c0 26.231354 -21.624283 47.496063 -48.29921 47.496063l0 0c-26.674911 0 -48.29921 -21.26471 -48.29921 -47.496063z" fill-rule="evenodd"/><path stroke="#999999" stroke-width="1.0" stroke-linejoin="round" stroke-linecap="butt" d="m143.29877 120.95102l0 0c0 -26.231354 21.624298 -47.496063 48.29921 -47.496063l0 0c12.809753 0 25.094849 5.004036 34.152695 13.91127c9.057861 8.907242 14.146515 20.988052 14.146515 33.584793l0 0c0 26.231354 -21.624283 47.496063 -48.29921 47.496063l0 0c-26.674911 0 -48.29921 -21.26471 -48.29921 -47.496063z" fill-rule="evenodd"/><path fill="#ff76bf" fill-opacity="0.4784" d="m96.509094 120.95102l0 0c0 -26.231354 21.624298 -47.496063 48.29921 -47.496063l0 0c12.809753 0 25.094849 5.004036 34.15271 13.91127c9.057861 8.907242 14.1465 20.988052 14.1465 33.584793l0 0c0 26.231354 -21.624283 47.496063 -48.29921 47.496063l0 0c-26.674911 0 -48.29921 -21.26471 -48.29921 -47.496063z" fill-rule="evenodd"/><path stroke="#999999" stroke-width="1.0" stroke-linejoin="round" stroke-linecap="butt" d="m96.509094 120.95102l0 0c0 -26.231354 21.624298 -47.496063 48.29921 -47.496063l0 0c12.809753 0 25.094849 5.004036 34.15271 13.91127c9.057861 8.907242 14.1465 20.988052 14.1465 33.584793l0 0c0 26.231354 -21.624283 47.496063 -48.29921 47.496063l0 0c-26.674911 0 -48.29921 -21.26471 -48.29921 -47.496063z" fill-rule="evenodd"/><path fill="#c9daf8" fill-opacity="0.5804" d="m46.716858 120.95102l0 0c0 -26.231354 21.62429 -47.496063 48.29921 -47.496063l0 0c12.809753 0 25.094841 5.004036 34.15271 13.91127c9.057846 8.907242 14.1465 20.988052 14.1465 33.584793l0 0c0 26.231354 -21.62429 47.496063 -48.29921 47.496063l0 0c-26.67492 0 -48.29921 -21.26471 -48.29921 -47.496063z" fill-rule="evenodd"/><path stroke="#999999" stroke-width="1.0" stroke-linejoin="round" stroke-linecap="butt" d="m46.716858 120.95102l0 0c0 -26.231354 21.62429 -47.496063 48.29921 -47.496063l0 0c12.809753 0 25.094841 5.004036 34.15271 13.91127c9.057846 8.907242 14.1465 20.988052 14.1465 33.584793l0 0c0 26.231354 -21.62429 47.496063 -48.29921 47.496063l0 0c-26.67492 0 -48.29921 -21.26471 -48.29921 -47.496063z" fill-rule="evenodd"/><path fill="#5fd6ff" fill-opacity="0.4078" d="m-0.07280604 120.95102l0 0c0 -26.231354 21.624294 -47.496063 48.299213 -47.496063l0 0c12.80975 0 25.094845 5.004036 34.1527 13.91127c9.057861 8.907242 14.146515 20.988052 14.146515 33.584793l0 0c0 26.231354 -21.624298 47.496063 -48.299213 47.496063l0 0c-26.674917 0 -48.299213 -21.26471 -48.299213 -47.496063z" fill-rule="evenodd"/><path stroke="#999999" stroke-width="1.0" stroke-linejoin="round" stroke-linecap="butt" d="m-0.07280604 120.95102l0 0c0 -26.231354 21.624294 -47.496063 48.299213 -47.496063l0 0c12.80975 0 25.094845 5.004036 34.1527 13.91127c9.057861 8.907242 14.146515 20.988052 14.146515 33.584793l0 0c0 26.231354 -21.624298 47.496063 -48.299213 47.496063l0 0c-26.674917 0 -48.299213 -21.26471 -48.299213 -47.496063z" fill-rule="evenodd"/><path fill="#000000" fill-opacity="0.0" d="m289.67923 256.9533l97.763794 -101.165375" fill-rule="evenodd"/><path stroke="#666666" stroke-width="1.0" stroke-linejoin="round" stroke-linecap="butt" stroke-dasharray="1.0,3.0" d="m289.67923 256.9533l97.763794 -101.165375" fill-rule="evenodd"/><path fill="#000000" fill-opacity="0.0" d="m275.5338 87.366394l82.078766 -34.96063" fill-rule="evenodd"/><path stroke="#666666" stroke-width="1.0" stroke-linejoin="round" stroke-linecap="butt" stroke-dasharray="1.0,3.0" d="m275.5338 87.366394l82.078766 -34.96063" fill-rule="evenodd"/><path fill="#000000" fill-opacity="0.0" d="m289.6787 120.9516l73.60629 0.03150177" fill-rule="evenodd"/><path stroke="#666666" stroke-width="1.0" stroke-linejoin="round" stroke-linecap="butt" stroke-dasharray="1.0,3.0" d="m289.6787 120.9516l73.60629 0.03150177" fill-rule="evenodd"/><path fill="#000000" fill-opacity="0.0" d="m275.5338 154.53682l82.99213 38.11023" fill-rule="evenodd"/><path stroke="#666666" stroke-width="1.0" stroke-linejoin="round" stroke-linecap="butt" stroke-dasharray="1.0,3.0" d="m275.5338 154.53682l82.99213 38.11023" fill-rule="evenodd"/><path fill="#000000" fill-opacity="0.0" d="m23.272612 85.81604l49.889763 0l0 70.267715l-49.889763 0z" fill-rule="evenodd"/><path fill="#b7b7b7" d="m60.756985 93.03114l0 56.71875l-6.796875 0l0 -40.625l-14.734375 0l0 -5.46875l0.234375 0q7.1875 0 11.125 -2.578125q3.953125 -2.578125 4.96875 -8.046875l5.203125 0z" fill-rule="nonzero"/><path fill="#000000" fill-opacity="0.0" d="m118.56746 85.81604l49.88977 0l0 70.267715l-49.88977 0z" fill-rule="evenodd"/><path fill="#b7b7b7" d="m148.66121 93.03114q8.171875 0 12.71875 4.046875q4.546875 4.03125 4.546875 11.109375q0 3.4375 -2.015625 6.46875q-2.0 3.015625 -5.828125 4.859375l0 0.15625q5.0 1.125 7.609375 4.71875q2.625 3.59375 2.625 9.03125q0 7.921875 -5.4375 12.625q-5.421875 4.6875 -14.0625 4.6875q-8.515625 0 -13.71875 -4.75q-5.1875 -4.75 -5.1875 -13.5l0 -0.28125l6.84375 0q0.234375 6.0625 3.453125 9.28125q3.21875 3.21875 8.609375 3.21875q5.28125 0 8.796875 -3.078125q3.515625 -3.09375 3.515625 -7.890625q0 -5.0 -3.328125 -7.921875q-3.3125 -2.9375 -9.015625 -2.9375q-0.828125 0 -1.828125 0.0625q-0.984375 0.046875 -2.0 0.171875l0 -5.75q0.890625 0.078125 2.5 0.078125q3.9375 0 6.28125 -1.265625q2.34375 -1.265625 3.671875 -3.234375q1.328125 -1.984375 1.328125 -4.796875q0 -4.21875 -2.734375 -6.65625q-2.734375 -2.4375 -7.34375 -2.4375q-4.953125 0 -7.796875 3.25q-2.828125 3.234375 -2.9375 9.046875l-6.796875 0q0.421875 -8.859375 4.984375 -13.578125q4.578125 -4.734375 12.546875 -4.734375z" fill-rule="nonzero"/><path fill="#000000" fill-opacity="0.0" d="m166.21492 85.81604l49.88977 0l0 70.267715l-49.88977 0z" fill-rule="evenodd"/><path fill="#b7b7b7" d="m208.73055 93.03114l0 37.421875l7.703125 0l0 6.015625l-7.703125 0l0 13.28125l-6.40625 0l0 -13.28125l-24.875 0l0 -6.5625l25.859375 -36.875l5.421875 0zm-6.5625 9.6875l-18.859375 27.734375l19.015625 0l0 -27.734375l-0.15625 0z" fill-rule="nonzero"/><path fill="#000000" fill-opacity="0.0" d="m213.86237 85.81604l49.88977 0l0 70.267715l-49.88977 0z" fill-rule="evenodd"/><path fill="#b7b7b7" d="m260.48737 93.99989l0 5.984375l-22.890625 0l-3.046875 16.328125l0.15625 0.15625q1.796875 -1.953125 4.5 -3.0q2.71875 -1.0625 6.078125 -1.0625q8.25 0 13.265625 5.15625q5.015625 5.15625 5.015625 14.21875q0 8.15625 -5.46875 13.5625q-5.46875 5.390625 -14.328125 5.390625q-7.578125 0 -12.71875 -4.375q-5.140625 -4.390625 -5.375 -11.8125l0 -0.078125l6.796875 0q0.3125 4.53125 3.65625 7.390625q3.34375 2.84375 8.265625 2.84375q5.234375 0 8.609375 -3.59375q3.375 -3.59375 3.375 -9.84375q0 -5.78125 -3.6875 -9.328125q-3.6875 -3.5625 -9.125 -3.5625q-3.0 0 -5.640625 1.359375q-2.640625 1.34375 -4.90625 4.0l-5.8125 -0.3125l5.265625 -29.421875l28.015625 0z" fill-rule="nonzero"/><path fill="#bdff5f" fill-opacity="0.4078" d="m363.29532 120.97059l0 0c0 -17.15142 14.13504 -31.055397 31.571503 -31.055397l0 0c8.3732605 0 16.403595 3.271904 22.324402 9.095917c5.920807 5.8240128 9.24707 13.723076 9.24707 21.95948l0 0c0 17.15142 -14.13504 31.055397 -31.571472 31.055397l0 0c-17.436462 0 -31.571503 -13.903976 -31.571503 -31.055397z" fill-rule="evenodd"/><path stroke="#999999" stroke-width="1.0" stroke-linejoin="round" stroke-linecap="butt" d="m363.29532 120.97059l0 0c0 -17.15142 14.13504 -31.055397 31.571503 -31.055397l0 0c8.3732605 0 16.403595 3.271904 22.324402 9.095917c5.920807 5.8240128 9.24707 13.723076 9.24707 21.95948l0 0c0 17.15142 -14.13504 31.055397 -31.571472 31.055397l0 0c-17.436462 0 -31.571503 -13.903976 -31.571503 -31.055397z" fill-rule="evenodd"/><path fill="#000000" fill-opacity="0.0" d="m367.2499 84.10796l49.89911 0l0 70.27682l-49.89911 0z" fill-rule="evenodd"/><path fill="#b7b7b7" d="m400.15616 91.32762q7.03125 0 11.1875 3.796875q4.171875 3.78125 4.828125 10.6875l-6.796875 0q-0.546875 -4.0625 -3.09375 -6.265625q-2.53125 -2.203125 -6.4375 -2.203125q-6.5625 0 -10.015625 5.453125q-3.453125 5.4375 -3.734375 16.03125l0.15625 0.1875q2.3125 -3.75 5.796875 -5.59375q3.5 -1.859375 8.34375 -1.859375q7.734375 0 12.5625 5.09375q4.828125 5.09375 4.828125 13.265625q0 8.15625 -4.984375 13.640625q-4.984375 5.46875 -13.96875 5.46875q-9.640625 0 -14.59375 -6.78125q-4.9375 -6.78125 -4.9375 -20.578125q0 -14.6875 5.3125 -22.515625q5.3125 -7.828125 15.546875 -7.828125zm-12.765625 39.015625q0 5.59375 3.234375 9.125q3.25 3.53125 8.515625 3.53125q5.046875 0 8.25 -3.546875q3.203125 -3.5625 3.203125 -9.03125q0 -5.859375 -3.09375 -9.34375q-3.078125 -3.5 -8.4375 -3.5q-5.3125 0 -8.5 3.5625q-3.171875 3.546875 -3.171875 9.203125z" fill-rule="nonzero"/><path fill="#bdff5f" fill-opacity="0.4078" d="m357.6192 52.4101l0 0c0 -17.151417 14.13504 -31.055391 31.571503 -31.055391l0 0c8.373291 0 16.403625 3.2718983 22.324402 9.095915c5.920807 5.8240166 9.247101 13.723076 9.247101 21.959476l0 0c0 17.151417 -14.13504 31.055393 -31.571503 31.055393l0 0c-17.436462 0 -31.571503 -13.903976 -31.571503 -31.055393z" fill-rule="evenodd"/><path stroke="#999999" stroke-width="1.0" stroke-linejoin="round" stroke-linecap="butt" d="m357.6192 52.4101l0 0c0 -17.151417 14.13504 -31.055391 31.571503 -31.055391l0 0c8.373291 0 16.403625 3.2718983 22.324402 9.095915c5.920807 5.8240166 9.247101 13.723076 9.247101 21.959476l0 0c0 17.151417 -14.13504 31.055393 -31.571503 31.055393l0 0c-17.436462 0 -31.571503 -13.903976 -31.571503 -31.055393z" fill-rule="evenodd"/><path fill="#000000" fill-opacity="0.0" d="m361.57382 15.547477l49.89908 0l0 70.27682l-49.89908 0z" fill-rule="evenodd"/><path fill="#b7b7b7" d="m394.48007 22.767132q7.03125 0 11.1875 3.796875q4.171875 3.78125 4.828125 10.6875l-6.796875 0q-0.546875 -4.0625 -3.09375 -6.265625q-2.53125 -2.203125 -6.4375 -2.203125q-6.5625 0 -10.015625 5.453125q-3.453125 5.4375 -3.734375 16.03125l0.15625 0.1875q2.3125 -3.75 5.796875 -5.59375q3.5 -1.859375 8.34375 -1.859375q7.734375 0 12.5625 5.09375q4.828125 5.09375 4.828125 13.265625q0 8.156246 -4.984375 13.640621q-4.984375 5.46875 -13.96875 5.46875q-9.640625 0 -14.59375 -6.78125q-4.9375 -6.78125 -4.9375 -20.578121q0 -14.6875 5.3125 -22.515625q5.3125 -7.828125 15.546875 -7.828125zm-12.765625 39.015625q0 5.593746 3.234375 9.124996q3.25 3.53125 8.515625 3.53125q5.046875 0 8.25 -3.546875q3.203125 -3.5625 3.203125 -9.031246q0 -5.859375 -3.09375 -9.34375q-3.078125 -3.5 -8.4375 -3.5q-5.3125 0 -8.5 3.5625q-3.171875 3.546875 -3.171875 9.203125z" fill-rule="nonzero"/><path fill="#bdff5f" fill-opacity="0.4078" d="m358.53058 192.65433l0 0c0 -17.151413 14.13501 -31.05539 31.571472 -31.05539l0 0c8.373291 0 16.403625 3.2718964 22.324432 9.095917c5.9207764 5.824005 9.24707 13.723068 9.24707 21.959473l0 0c0 17.151413 -14.13504 31.05539 -31.571503 31.05539l0 0c-17.436462 0 -31.571472 -13.903976 -31.571472 -31.05539z" fill-rule="evenodd"/><path stroke="#999999" stroke-width="1.0" stroke-linejoin="round" stroke-linecap="butt" d="m358.53058 192.65433l0 0c0 -17.151413 14.13501 -31.05539 31.571472 -31.05539l0 0c8.373291 0 16.403625 3.2718964 22.324432 9.095917c5.9207764 5.824005 9.24707 13.723068 9.24707 21.959473l0 0c0 17.151413 -14.13504 31.05539 -31.571503 31.05539l0 0c-17.436462 0 -31.571472 -13.903976 -31.571472 -31.05539z" fill-rule="evenodd"/><path fill="#000000" fill-opacity="0.0" d="m362.48517 155.7917l49.89908 0l0 70.276825l-49.89908 0z" fill-rule="evenodd"/><path fill="#b7b7b7" d="m395.39142 163.01135q7.03125 0 11.1875 3.796875q4.171875 3.78125 4.828125 10.6875l-6.796875 0q-0.546875 -4.0625 -3.09375 -6.265625q-2.53125 -2.203125 -6.4375 -2.203125q-6.5625 0 -10.015625 5.453125q-3.453125 5.4375 -3.734375 16.03125l0.15625 0.1875q2.3125 -3.75 5.796875 -5.59375q3.5 -1.859375 8.34375 -1.859375q7.734375 0 12.5625 5.09375q4.828125 5.09375 4.828125 13.265625q0 8.15625 -4.984375 13.640625q-4.984375 5.46875 -13.96875 5.46875q-9.640625 0 -14.59375 -6.78125q-4.9375 -6.78125 -4.9375 -20.578125q0 -14.6875 5.3125 -22.515625q5.3125 -7.828125 15.546875 -7.828125zm-12.765625 39.015625q0 5.59375 3.234375 9.125q3.25 3.53125 8.515625 3.53125q5.046875 0 8.25 -3.546875q3.203125 -3.5625 3.203125 -9.03125q0 -5.859375 -3.09375 -9.34375q-3.078125 -3.5 -8.4375 -3.5q-5.3125 0 -8.5 3.5625q-3.171875 3.546875 -3.171875 9.203125z" fill-rule="nonzero"/><path fill="#000000" fill-opacity="0.0" d="m70.92007 85.81604l49.889763 0l0 70.267715l-49.889763 0z" fill-rule="evenodd"/><path fill="#b7b7b7" d="m101.68569 93.03114q7.84375 0 12.796875 4.4375q4.96875 4.421875 4.96875 11.890625q0 5.859375 -3.28125 10.59375q-3.28125 4.71875 -13.90625 10.84375q-6.484375 3.75 -9.203125 6.71875q-2.703125 2.96875 -3.296875 6.21875l29.109375 0l0 6.015625l-37.03125 0q0.578125 -7.078125 3.640625 -12.390625q3.078125 -5.3125 11.46875 -10.3125q9.921875 -6.046875 12.59375 -9.484375q2.6875 -3.4375 2.6875 -8.25q0 -4.453125 -3.125 -7.359375q-3.125 -2.90625 -7.8125 -2.90625q-5.125 0 -8.09375 3.8125q-2.96875 3.796875 -2.96875 9.703125l0 0.546875l-6.796875 0l-0.03125 -1.40625q0 -8.4375 5.0 -13.546875q5.0 -5.125 13.28125 -5.125z" fill-rule="nonzero"/><path fill="#efefef" fill-opacity="0.5255" d="m193.08081 184.9533l0 0c0 -26.231354 21.624283 -47.496063 48.29921 -47.496063l0 0c12.809738 0 25.094833 5.0040436 34.152695 13.91127c9.057861 8.907242 14.146515 20.988052 14.146515 33.584793l0 0c0 26.231354 -21.624298 47.496063 -48.29921 47.496063l0 0c-26.674927 0 -48.29921 -21.26471 -48.29921 -47.496063z" fill-rule="evenodd"/><path stroke="#999999" stroke-width="1.0" stroke-linejoin="round" stroke-linecap="butt" d="m193.08081 184.9533l0 0c0 -26.231354 21.624283 -47.496063 48.29921 -47.496063l0 0c12.809738 0 25.094833 5.0040436 34.152695 13.91127c9.057861 8.907242 14.146515 20.988052 14.146515 33.584793l0 0c0 26.231354 -21.624298 47.496063 -48.29921 47.496063l0 0c-26.674927 0 -48.29921 -21.26471 -48.29921 -47.496063z" fill-rule="evenodd"/><path fill="#fffd5b" fill-opacity="0.5569" d="m143.29097 184.9533l0 0c0 -26.231354 21.624298 -47.496063 48.29921 -47.496063l0 0c12.809753 0 25.094849 5.0040436 34.15271 13.91127c9.057861 8.907242 14.146515 20.988052 14.146515 33.584793l0 0c0 26.231354 -21.624298 47.496063 -48.299225 47.496063l0 0c-26.674911 0 -48.29921 -21.26471 -48.29921 -47.496063z" fill-rule="evenodd"/><path stroke="#999999" stroke-width="1.0" stroke-linejoin="round" stroke-linecap="butt" d="m143.29097 184.9533l0 0c0 -26.231354 21.624298 -47.496063 48.29921 -47.496063l0 0c12.809753 0 25.094849 5.0040436 34.15271 13.91127c9.057861 8.907242 14.146515 20.988052 14.146515 33.584793l0 0c0 26.231354 -21.624298 47.496063 -48.299225 47.496063l0 0c-26.674911 0 -48.29921 -21.26471 -48.29921 -47.496063z" fill-rule="evenodd"/><path fill="#ff76bf" fill-opacity="0.4784" d="m96.50357 184.9533l0 0c0 -26.231354 21.62429 -47.496063 48.29921 -47.496063l0 0c12.809753 0 25.094849 5.0040436 34.15271 13.91127c9.057846 8.907242 14.1465 20.988052 14.1465 33.584793l0 0c0 26.231354 -21.624283 47.496063 -48.29921 47.496063l0 0c-26.67492 0 -48.29921 -21.26471 -48.29921 -47.496063z" fill-rule="evenodd"/><path stroke="#999999" stroke-width="1.0" stroke-linejoin="round" stroke-linecap="butt" d="m96.50357 184.9533l0 0c0 -26.231354 21.62429 -47.496063 48.29921 -47.496063l0 0c12.809753 0 25.094849 5.0040436 34.15271 13.91127c9.057846 8.907242 14.1465 20.988052 14.1465 33.584793l0 0c0 26.231354 -21.624283 47.496063 -48.29921 47.496063l0 0c-26.67492 0 -48.29921 -21.26471 -48.29921 -47.496063z" fill-rule="evenodd"/><path fill="#c9daf8" fill-opacity="0.5804" d="m46.713745 184.9533l0 0c0 -26.231354 21.62429 -47.496063 48.29921 -47.496063l0 0c12.809753 0 25.094841 5.0040436 34.15271 13.91127c9.057846 8.907242 14.1465 20.988052 14.1465 33.584793l0 0c0 26.231354 -21.62429 47.496063 -48.29921 47.496063l0 0c-26.67492 0 -48.29921 -21.26471 -48.29921 -47.496063z" fill-rule="evenodd"/><path stroke="#999999" stroke-width="1.0" stroke-linejoin="round" stroke-linecap="butt" d="m46.713745 184.9533l0 0c0 -26.231354 21.62429 -47.496063 48.29921 -47.496063l0 0c12.809753 0 25.094841 5.0040436 34.15271 13.91127c9.057846 8.907242 14.1465 20.988052 14.1465 33.584793l0 0c0 26.231354 -21.62429 47.496063 -48.29921 47.496063l0 0c-26.67492 0 -48.29921 -21.26471 -48.29921 -47.496063z" fill-rule="evenodd"/><path fill="#5fd6ff" fill-opacity="0.4078" d="m-0.07365144 184.9533l0 0c0 -26.231354 21.624294 -47.496063 48.299213 -47.496063l0 0c12.809746 0 25.094841 5.0040436 34.152702 13.91127c9.057854 8.907242 14.146507 20.988052 14.146507 33.584793l0 0c0 26.231354 -21.62429 47.496063 -48.29921 47.496063l0 0c-26.674921 0 -48.299213 -21.26471 -48.299213 -47.496063z" fill-rule="evenodd"/><path stroke="#999999" stroke-width="1.0" stroke-linejoin="round" stroke-linecap="butt" d="m-0.07365144 184.9533l0 0c0 -26.231354 21.624294 -47.496063 48.299213 -47.496063l0 0c12.809746 0 25.094841 5.0040436 34.152702 13.91127c9.057854 8.907242 14.146507 20.988052 14.146507 33.584793l0 0c0 26.231354 -21.62429 47.496063 -48.29921 47.496063l0 0c-26.674921 0 -48.299213 -21.26471 -48.299213 -47.496063z" fill-rule="evenodd"/><path fill="#000000" fill-opacity="0.0" d="m23.270636 149.81879l49.889763 0l0 70.267715l-49.889763 0z" fill-rule="evenodd"/><path fill="#b7b7b7" d="m60.75501 157.03389l0 56.71875l-6.796875 0l0 -40.625l-14.734375 0l0 -5.46875l0.234375 0q7.1875 0 11.125 -2.578125q3.953125 -2.578125 4.96875 -8.046875l5.203125 0z" fill-rule="nonzero"/><path fill="#000000" fill-opacity="0.0" d="m118.56087 149.81879l49.889755 0l0 70.267715l-49.889755 0z" fill-rule="evenodd"/><path fill="#b7b7b7" d="m148.65462 157.03389q8.171875 0 12.71875 4.046875q4.546875 4.03125 4.546875 11.109375q0 3.4375 -2.015625 6.46875q-2.0 3.015625 -5.828125 4.859375l0 0.15625q5.0 1.125 7.609375 4.71875q2.625 3.59375 2.625 9.03125q0 7.921875 -5.4375 12.625q-5.421875 4.6875 -14.0625 4.6875q-8.515625 0 -13.71875 -4.75q-5.1875 -4.75 -5.1875 -13.5l0 -0.28125l6.84375 0q0.234375 6.0625 3.453125 9.28125q3.21875 3.21875 8.609375 3.21875q5.28125 0 8.796875 -3.078125q3.515625 -3.09375 3.515625 -7.890625q0 -5.0 -3.328125 -7.921875q-3.3125 -2.9375 -9.015625 -2.9375q-0.828125 0 -1.828125 0.0625q-0.984375 0.046875 -2.0 0.171875l0 -5.75q0.890625 0.078125 2.5 0.078125q3.9375 0 6.28125 -1.265625q2.34375 -1.265625 3.671875 -3.234375q1.328125 -1.984375 1.328125 -4.796875q0 -4.21875 -2.734375 -6.65625q-2.734375 -2.4375 -7.34375 -2.4375q-4.953125 0 -7.796875 3.25q-2.828125 3.234375 -2.9375 9.046875l-6.796875 0q0.421875 -8.859375 4.984375 -13.578125q4.578125 -4.734375 12.546875 -4.734375z" fill-rule="nonzero"/><path fill="#000000" fill-opacity="0.0" d="m166.20602 149.81879l49.889755 0l0 70.267715l-49.889755 0z" fill-rule="evenodd"/><path fill="#b7b7b7" d="m208.72165 157.03389l0 37.421875l7.703125 0l0 6.015625l-7.703125 0l0 13.28125l-6.40625 0l0 -13.28125l-24.875 0l0 -6.5625l25.859375 -36.875l5.421875 0zm-6.5625 9.6875l-18.859375 27.734375l19.015625 0l0 -27.734375l-0.15625 0z" fill-rule="nonzero"/><path fill="#000000" fill-opacity="0.0" d="m213.85115 149.81879l49.889755 0l0 70.267715l-49.889755 0z" fill-rule="evenodd"/><path fill="#b7b7b7" d="m260.47617 158.00264l0 5.984375l-22.89064 0l-3.046875 16.328125l0.15625 0.15625q1.796875 -1.953125 4.5 -3.0q2.71875 -1.0625 6.078125 -1.0625q8.25 0 13.26564 5.15625q5.015625 5.15625 5.015625 14.21875q0 8.15625 -5.46875 13.5625q-5.4687653 5.390625 -14.32814 5.390625q-7.578125 0 -12.71875 -4.375q-5.140625 -4.390625 -5.375 -11.8125l0 -0.078125l6.796875 0q0.3125 4.53125 3.65625 7.390625q3.34375 2.84375 8.265625 2.84375q5.234375 0 8.609375 -3.59375q3.3750153 -3.59375 3.3750153 -9.84375q0 -5.78125 -3.6875153 -9.328125q-3.6875 -3.5625 -9.125 -3.5625q-3.0 0 -5.640625 1.359375q-2.640625 1.34375 -4.90625 4.0l-5.8125 -0.3125l5.265625 -29.421875l28.01564 0z" fill-rule="nonzero"/><path fill="#000000" fill-opacity="0.0" d="m70.91579 149.81879l49.889763 0l0 70.267715l-49.889763 0z" fill-rule="evenodd"/><path fill="#b7b7b7" d="m101.68141 157.03389q7.84375 0 12.796875 4.4375q4.96875 4.421875 4.96875 11.890625q0 5.859375 -3.28125 10.59375q-3.28125 4.71875 -13.90625 10.84375q-6.484375 3.75 -9.203125 6.71875q-2.703125 2.96875 -3.296875 6.21875l29.109375 0l0 6.015625l-37.03125 0q0.578125 -7.078125 3.640625 -12.390625q3.078125 -5.3125 11.46875 -10.3125q9.921875 -6.046875 12.59375 -9.484375q2.6875 -3.4375 2.6875 -8.25q0 -4.453125 -3.125 -7.359375q-3.125 -2.90625 -7.8125 -2.90625q-5.125 0 -8.09375 3.8125q-2.96875 3.796875 -2.96875 9.703125l0 0.546875l-6.796875 0l-0.03125 -1.40625q0 -8.4375 5.0 -13.546875q5.0 -5.125 13.28125 -5.125z" fill-rule="nonzero"/><path fill="#efefef" fill-opacity="0.5255" d="m193.08081 256.9533l0 0c0 -26.231369 21.624283 -47.49608 48.29921 -47.49608l0 0c12.809738 0 25.094833 5.0040436 34.152695 13.91127c9.057861 8.907242 14.146515 20.988052 14.146515 33.58481l0 0c0 26.231323 -21.624298 47.496063 -48.29921 47.496063l0 0c-26.674927 0 -48.29921 -21.26474 -48.29921 -47.496063z" fill-rule="evenodd"/><path stroke="#999999" stroke-width="1.0" stroke-linejoin="round" stroke-linecap="butt" d="m193.08081 256.9533l0 0c0 -26.231369 21.624283 -47.49608 48.29921 -47.49608l0 0c12.809738 0 25.094833 5.0040436 34.152695 13.91127c9.057861 8.907242 14.146515 20.988052 14.146515 33.58481l0 0c0 26.231323 -21.624298 47.496063 -48.29921 47.496063l0 0c-26.674927 0 -48.29921 -21.26474 -48.29921 -47.496063z" fill-rule="evenodd"/><path fill="#fffd5b" fill-opacity="0.5569" d="m143.29097 256.9533l0 0c0 -26.231369 21.624298 -47.49608 48.29921 -47.49608l0 0c12.809753 0 25.094849 5.0040436 34.15271 13.91127c9.057861 8.907242 14.146515 20.988052 14.146515 33.58481l0 0c0 26.231323 -21.624298 47.496063 -48.299225 47.496063l0 0c-26.674911 0 -48.29921 -21.26474 -48.29921 -47.496063z" fill-rule="evenodd"/><path stroke="#999999" stroke-width="1.0" stroke-linejoin="round" stroke-linecap="butt" d="m143.29097 256.9533l0 0c0 -26.231369 21.624298 -47.49608 48.29921 -47.49608l0 0c12.809753 0 25.094849 5.0040436 34.15271 13.91127c9.057861 8.907242 14.146515 20.988052 14.146515 33.58481l0 0c0 26.231323 -21.624298 47.496063 -48.299225 47.496063l0 0c-26.674911 0 -48.29921 -21.26474 -48.29921 -47.496063z" fill-rule="evenodd"/><path fill="#ff76bf" fill-opacity="0.4784" d="m96.50357 256.9533l0 0c0 -26.231369 21.62429 -47.49608 48.29921 -47.49608l0 0c12.809753 0 25.094849 5.0040436 34.15271 13.91127c9.057846 8.907242 14.1465 20.988052 14.1465 33.58481l0 0c0 26.231323 -21.624283 47.496063 -48.29921 47.496063l0 0c-26.67492 0 -48.29921 -21.26474 -48.29921 -47.496063z" fill-rule="evenodd"/><path stroke="#999999" stroke-width="1.0" stroke-linejoin="round" stroke-linecap="butt" d="m96.50357 256.9533l0 0c0 -26.231369 21.62429 -47.49608 48.29921 -47.49608l0 0c12.809753 0 25.094849 5.0040436 34.15271 13.91127c9.057846 8.907242 14.1465 20.988052 14.1465 33.58481l0 0c0 26.231323 -21.624283 47.496063 -48.29921 47.496063l0 0c-26.67492 0 -48.29921 -21.26474 -48.29921 -47.496063z" fill-rule="evenodd"/><path fill="#c9daf8" fill-opacity="0.5804" d="m46.713745 256.9533l0 0c0 -26.231369 21.62429 -47.49608 48.29921 -47.49608l0 0c12.809753 0 25.094841 5.0040436 34.15271 13.91127c9.057846 8.907242 14.1465 20.988052 14.1465 33.58481l0 0c0 26.231323 -21.62429 47.496063 -48.29921 47.496063l0 0c-26.67492 0 -48.29921 -21.26474 -48.29921 -47.496063z" fill-rule="evenodd"/><path stroke="#999999" stroke-width="1.0" stroke-linejoin="round" stroke-linecap="butt" d="m46.713745 256.9533l0 0c0 -26.231369 21.62429 -47.49608 48.29921 -47.49608l0 0c12.809753 0 25.094841 5.0040436 34.15271 13.91127c9.057846 8.907242 14.1465 20.988052 14.1465 33.58481l0 0c0 26.231323 -21.62429 47.496063 -48.29921 47.496063l0 0c-26.67492 0 -48.29921 -21.26474 -48.29921 -47.496063z" fill-rule="evenodd"/><path fill="#5fd6ff" fill-opacity="0.4078" d="m-0.07365144 256.9533l0 0c0 -26.231369 21.624294 -47.49608 48.299213 -47.49608l0 0c12.809746 0 25.094841 5.0040436 34.152702 13.91127c9.057854 8.907242 14.146507 20.988052 14.146507 33.58481l0 0c0 26.231323 -21.62429 47.496063 -48.29921 47.496063l0 0c-26.674921 0 -48.299213 -21.26474 -48.299213 -47.496063z" fill-rule="evenodd"/><path stroke="#999999" stroke-width="1.0" stroke-linejoin="round" stroke-linecap="butt" d="m-0.07365144 256.9533l0 0c0 -26.231369 21.624294 -47.49608 48.299213 -47.49608l0 0c12.809746 0 25.094841 5.0040436 34.152702 13.91127c9.057854 8.907242 14.146507 20.988052 14.146507 33.58481l0 0c0 26.231323 -21.62429 47.496063 -48.29921 47.496063l0 0c-26.674921 0 -48.299213 -21.26474 -48.299213 -47.496063z" fill-rule="evenodd"/><path fill="#000000" fill-opacity="0.0" d="m23.270636 221.81879l49.889763 0l0 70.2677l-49.889763 0z" fill-rule="evenodd"/><path fill="#b7b7b7" d="m60.75501 229.03389l0 56.718735l-6.796875 0l0 -40.624985l-14.734375 0l0 -5.46875l0.234375 0q7.1875 0 11.125 -2.578125q3.953125 -2.578125 4.96875 -8.046875l5.203125 0z" fill-rule="nonzero"/><path fill="#000000" fill-opacity="0.0" d="m118.56087 221.81879l49.889755 0l0 70.2677l-49.889755 0z" fill-rule="evenodd"/><path fill="#b7b7b7" d="m148.65462 229.03389q8.171875 0 12.71875 4.046875q4.546875 4.03125 4.546875 11.109375q0 3.4375 -2.015625 6.46875q-2.0 3.015625 -5.828125 4.859375l0 0.15625q5.0 1.1249847 7.609375 4.7187347q2.625 3.59375 2.625 9.03125q0 7.921875 -5.4375 12.625q-5.421875 4.6875 -14.0625 4.6875q-8.515625 0 -13.71875 -4.75q-5.1875 -4.75 -5.1875 -13.5l0 -0.28125l6.84375 0q0.234375 6.0625 3.453125 9.28125q3.21875 3.21875 8.609375 3.21875q5.28125 0 8.796875 -3.078125q3.515625 -3.09375 3.515625 -7.890625q0 -5.0 -3.328125 -7.921875q-3.3125 -2.9375 -9.015625 -2.9375q-0.828125 0 -1.828125 0.0625q-0.984375 0.046875 -2.0 0.171875l0 -5.7499847q0.890625 0.078125 2.5 0.078125q3.9375 0 6.28125 -1.265625q2.34375 -1.265625 3.671875 -3.234375q1.328125 -1.984375 1.328125 -4.796875q0 -4.21875 -2.734375 -6.65625q-2.734375 -2.4375 -7.34375 -2.4375q-4.953125 0 -7.796875 3.25q-2.828125 3.234375 -2.9375 9.046875l-6.796875 0q0.421875 -8.859375 4.984375 -13.578125q4.578125 -4.734375 12.546875 -4.734375z" fill-rule="nonzero"/><path fill="#000000" fill-opacity="0.0" d="m166.20602 221.81879l49.889755 0l0 70.2677l-49.889755 0z" fill-rule="evenodd"/><path fill="#b7b7b7" d="m208.72165 229.03389l0 37.42186l7.703125 0l0 6.015625l-7.703125 0l0 13.28125l-6.40625 0l0 -13.28125l-24.875 0l0 -6.5625l25.859375 -36.874985l5.421875 0zm-6.5625 9.6875l-18.859375 27.73436l19.015625 0l0 -27.73436l-0.15625 0z" fill-rule="nonzero"/><path fill="#000000" fill-opacity="0.0" d="m213.85115 221.81879l49.889755 0l0 70.2677l-49.889755 0z" fill-rule="evenodd"/><path fill="#b7b7b7" d="m260.47617 230.00264l0 5.984375l-22.89064 0l-3.046875 16.328125l0.15625 0.15625q1.796875 -1.953125 4.5 -3.0q2.71875 -1.0625 6.078125 -1.0625q8.25 0 13.26564 5.15625q5.015625 5.1562347 5.015625 14.218735q0 8.15625 -5.46875 13.5625q-5.4687653 5.390625 -14.32814 5.390625q-7.578125 0 -12.71875 -4.375q-5.140625 -4.390625 -5.375 -11.8125l0 -0.078125l6.796875 0q0.3125 4.53125 3.65625 7.390625q3.34375 2.84375 8.265625 2.84375q5.234375 0 8.609375 -3.59375q3.3750153 -3.59375 3.3750153 -9.84375q0 -5.78125 -3.6875153 -9.328125q-3.6875 -3.5624847 -9.125 -3.5624847q-3.0 0 -5.640625 1.359375q-2.640625 1.3437347 -4.90625 3.9999847l-5.8125 -0.3125l5.265625 -29.42186l28.01564 0z" fill-rule="nonzero"/><path fill="#000000" fill-opacity="0.0" d="m70.91579 221.81879l49.889763 0l0 70.2677l-49.889763 0z" fill-rule="evenodd"/><path fill="#b7b7b7" d="m101.68141 229.03389q7.84375 0 12.796875 4.4375q4.96875 4.421875 4.96875 11.890625q0 5.859375 -3.28125 10.59375q-3.28125 4.7187347 -13.90625 10.843735q-6.484375 3.75 -9.203125 6.71875q-2.703125 2.96875 -3.296875 6.21875l29.109375 0l0 6.015625l-37.03125 0q0.578125 -7.078125 3.640625 -12.390625q3.078125 -5.3125 11.46875 -10.3125q9.921875 -6.046875 12.59375 -9.48436q2.6875 -3.4375 2.6875 -8.25q0 -4.453125 -3.125 -7.359375q-3.125 -2.90625 -7.8125 -2.90625q-5.125 0 -8.09375 3.8125q-2.96875 3.796875 -2.96875 9.703125l0 0.546875l-6.796875 0l-0.03125 -1.40625q0 -8.4375 5.0 -13.546875q5.0 -5.125 13.28125 -5.125z" fill-rule="nonzero"/><path fill="#bdff5f" fill-opacity="0.4078" d="m309.61887 244.40762l0 0c0 -17.151413 14.13504 -31.05539 31.571503 -31.05539l0 0c8.373291 0 16.403595 3.2718964 22.324402 9.095917c5.920807 5.8240204 9.24707 13.7230835 9.24707 21.959473l0 0c0 17.151428 -14.13501 31.05539 -31.571472 31.05539l0 0c-17.436462 0 -31.571503 -13.903961 -31.571503 -31.05539z" fill-rule="evenodd"/><path stroke="#999999" stroke-width="1.0" stroke-linejoin="round" stroke-linecap="butt" d="m309.61887 244.40762l0 0c0 -17.151413 14.13504 -31.05539 31.571503 -31.05539l0 0c8.373291 0 16.403595 3.2718964 22.324402 9.095917c5.920807 5.8240204 9.24707 13.7230835 9.24707 21.959473l0 0c0 17.151428 -14.13501 31.05539 -31.571472 31.05539l0 0c-17.436462 0 -31.571503 -13.903961 -31.571503 -31.05539z" fill-rule="evenodd"/><path fill="#000000" fill-opacity="0.0" d="m313.57346 207.54501l49.89911 0l0 70.276825l-49.89911 0z" fill-rule="evenodd"/><path fill="#b7b7b7" d="m346.4797 214.76466q7.03125 0 11.1875 3.796875q4.171875 3.78125 4.828125 10.6875l-6.796875 0q-0.546875 -4.0625 -3.09375 -6.265625q-2.53125 -2.203125 -6.4375 -2.203125q-6.5625 0 -10.015625 5.453125q-3.453125 5.4375 -3.734375 16.03125l0.15625 0.1875q2.3125 -3.75 5.796875 -5.59375q3.5 -1.859375 8.34375 -1.859375q7.734375 0 12.5625 5.09375q4.828125 5.09375 4.828125 13.265625q0 8.156235 -4.984375 13.64061q-4.984375 5.46875 -13.96875 5.46875q-9.640625 0 -14.59375 -6.78125q-4.9375 -6.78125 -4.9375 -20.57811q0 -14.6875 5.3125 -22.515625q5.3125 -7.828125 15.546875 -7.828125zm-12.765625 39.015625q0 5.5937347 3.234375 9.124985q3.25 3.53125 8.515625 3.53125q5.046875 0 8.25 -3.546875q3.203125 -3.5625 3.203125 -9.031235q0 -5.859375 -3.09375 -9.34375q-3.078125 -3.5 -8.4375 -3.5q-5.3125 0 -8.5 3.5625q-3.171875 3.546875 -3.171875 9.203125z" fill-rule="nonzero"/><path fill="#bdff5f" fill-opacity="0.4078" d="m263.74277 37.672874l0 0c0 -17.15142 14.13504 -31.055393 31.571503 -31.055393l0 0c8.373291 0 16.403595 3.2718978 22.324402 9.095913c5.920807 5.8240156 9.247101 13.723077 9.247101 21.95948l0 0c0 17.15142 -14.13504 31.05539 -31.571503 31.05539l0 0c-17.436462 0 -31.571503 -13.903969 -31.571503 -31.05539z" fill-rule="evenodd"/><path stroke="#999999" stroke-width="1.0" stroke-linejoin="round" stroke-linecap="butt" d="m263.74277 37.672874l0 0c0 -17.15142 14.13504 -31.055393 31.571503 -31.055393l0 0c8.373291 0 16.403595 3.2718978 22.324402 9.095913c5.920807 5.8240156 9.247101 13.723077 9.247101 21.95948l0 0c0 17.15142 -14.13504 31.05539 -31.571503 31.05539l0 0c-17.436462 0 -31.571503 -13.903969 -31.571503 -31.05539z" fill-rule="evenodd"/><path fill="#000000" fill-opacity="0.0" d="m267.6974 0.81025094l49.89908 0l0 70.27682l-49.89908 0z" fill-rule="evenodd"/><path fill="#b7b7b7" d="m300.60364 8.029905q7.03125 0 11.1875 3.796875q4.171875 3.78125 4.828125 10.6875l-6.796875 0q-0.546875 -4.0625 -3.09375 -6.265625q-2.53125 -2.203125 -6.4375 -2.203125q-6.5625 0 -10.015625 5.453125q-3.453125 5.4375 -3.734375 16.031248l0.15625 0.1875q2.3125 -3.749998 5.796875 -5.593748q3.5 -1.859375 8.34375 -1.859375q7.734375 0 12.5625 5.093748q4.828125 5.09375 4.828125 13.265625q0 8.15625 -4.984375 13.640625q-4.984375 5.468746 -13.96875 5.468746q-9.640625 0 -14.59375 -6.781246q-4.9375 -6.78125 -4.9375 -20.578125q0 -14.687498 5.3125 -22.515623q5.3125 -7.828125 15.546875 -7.828125zm-12.765625 39.015625q0 5.59375 3.234375 9.125q3.25 3.53125 8.515625 3.53125q5.046875 0 8.25 -3.546875q3.203125 -3.5625 3.203125 -9.03125q0 -5.859375 -3.09375 -9.34375q-3.078125 -3.5 -8.4375 -3.5q-5.3125 0 -8.5 3.5625q-3.171875 3.546875 -3.171875 9.203125z" fill-rule="nonzero"/><path fill="#bdff5f" fill-opacity="0.4078" d="m315.2947 312.9707l0 0c0 -17.151428 14.13504 -31.05539 31.571503 -31.05539l0 0c8.3732605 0 16.403595 3.271881 22.324402 9.095886c5.920807 5.8240356 9.24707 13.7230835 9.24707 21.959503l0 0c0 17.151398 -14.13504 31.05539 -31.571472 31.05539l0 0c-17.436462 0 -31.571503 -13.903992 -31.571503 -31.05539z" fill-rule="evenodd"/><path stroke="#999999" stroke-width="1.0" stroke-linejoin="round" stroke-linecap="butt" d="m315.2947 312.9707l0 0c0 -17.151428 14.13504 -31.05539 31.571503 -31.05539l0 0c8.3732605 0 16.403595 3.271881 22.324402 9.095886c5.920807 5.8240356 9.24707 13.7230835 9.24707 21.959503l0 0c0 17.151398 -14.13504 31.05539 -31.571472 31.05539l0 0c-17.436462 0 -31.571503 -13.903992 -31.571503 -31.05539z" fill-rule="evenodd"/><path fill="#000000" fill-opacity="0.0" d="m319.2493 276.10806l49.89908 0l0 70.276825l-49.89908 0z" fill-rule="evenodd"/><path fill="#b7b7b7" d="m352.15555 283.32773q7.03125 0 11.1875 3.796875q4.171875 3.78125 4.828125 10.6875l-6.796875 0q-0.546875 -4.0625 -3.09375 -6.265625q-2.53125 -2.203125 -6.4375 -2.203125q-6.5625 0 -10.015625 5.453125q-3.453125 5.4375 -3.734375 16.03125l0.15625 0.1875q2.3125 -3.75 5.796875 -5.59375q3.5 -1.859375 8.34375 -1.859375q7.734375 0 12.5625 5.09375q4.828125 5.09375 4.828125 13.265625q0 8.15625 -4.984375 13.640625q-4.984375 5.46875 -13.96875 5.46875q-9.640625 0 -14.59375 -6.78125q-4.9375 -6.78125 -4.9375 -20.578125q0 -14.6875 5.3125 -22.515625q5.3125 -7.828125 15.546875 -7.828125zm-12.765625 39.015625q0 5.59375 3.234375 9.125q3.25 3.53125 8.515625 3.53125q5.046875 0 8.25 -3.546875q3.203125 -3.5625 3.203125 -9.03125q0 -5.859375 -3.09375 -9.34375q-3.078125 -3.5 -8.4375 -3.5q-5.3125 0 -8.5 3.5625q-3.171875 3.546875 -3.171875 9.203125z" fill-rule="nonzero"/><path fill="#000000" fill-opacity="0.0" d="m238.80725 85.81604l53.826782 -14.74015" fill-rule="evenodd"/><path stroke="#666666" stroke-width="1.0" stroke-linejoin="round" stroke-linecap="butt" stroke-dasharray="1.0,3.0" d="m238.80725 85.81604l53.826782 -14.74015" fill-rule="evenodd"/><path fill="#000000" fill-opacity="0.0" d="m289.67923 184.9533l96.8504 -99.11811" fill-rule="evenodd"/><path stroke="#666666" stroke-width="1.0" stroke-linejoin="round" stroke-linecap="butt" stroke-dasharray="1.0,3.0" d="m289.67923 184.9533l96.8504 -99.11811" fill-rule="evenodd"/><path fill="#000000" fill-opacity="0.0" d="m275.5327 290.5381l43.716553 20.692902" fill-rule="evenodd"/><path stroke="#666666" stroke-width="1.0" stroke-linejoin="round" stroke-linecap="butt" stroke-dasharray="1.0,3.0" d="m275.5327 290.5381l43.716553 20.692902" fill-rule="evenodd"/><path fill="#000000" fill-opacity="0.0" d="m289.67923 256.9533l23.905518 -14.267731" fill-rule="evenodd"/><path stroke="#666666" stroke-width="1.0" stroke-linejoin="round" stroke-linecap="butt" stroke-dasharray="1.0,3.0" d="m289.67923 256.9533l23.905518 -14.267731" fill-rule="evenodd"/><path fill="#000000" fill-opacity="0.0" d="m289.67923 184.9533l72.81891 5.984253" fill-rule="evenodd"/><path stroke="#666666" stroke-width="1.0" stroke-linejoin="round" stroke-linecap="butt" stroke-dasharray="1.0,3.0" d="m289.67923 184.9533l72.81891 5.984253" fill-rule="evenodd"/></g></svg>