<svg version="1.1" viewBox="0.0 0.0 982.0 325.0" fill="none" stroke="none" stroke-linecap="square" stroke-miterlimit="10" xmlns:xlink="http://www.w3.org/1999/xlink" xmlns="http://www.w3.org/2000/svg"><clipPath id="p.0"><path d="m0 0l982.0 0l0 325.0l-982.0 0l0 -325.0z" clip-rule="nonzero"/></clipPath><g clip-path="url(#p.0)"><path fill="#000000" fill-opacity="0.0" d="m0 0l982.0 0l0 325.0l-982.0 0z" fill-rule="evenodd"/><path fill="#ffffff" fill-opacity="0.5056" d="m1.5735328 28.355564l980.4409 0l0 296.6299l-980.4409 0z" fill-rule="evenodd"/><path fill="#000000" fill-opacity="0.0" d="m33.727646 80.797874l375.02362 -40.37795" fill-rule="evenodd"/><path stroke="#b7b7b7" stroke-width="3.0" stroke-linejoin="round" stroke-linecap="butt" stroke-dasharray="3.0,9.0" d="m33.727646 80.797874l375.02362 -40.37795" fill-rule="evenodd"/><path fill="#000000" fill-opacity="0.0" d="m277.9476 80.79746l130.80316 -40.37795" fill-rule="evenodd"/><path stroke="#b7b7b7" stroke-width="3.0" stroke-linejoin="round" stroke-linecap="butt" stroke-dasharray="3.0,9.0" d="m277.9476 80.79746l130.80316 -40.37795" fill-rule="evenodd"/><path fill="#000000" fill-opacity="0.0" d="m578.5965 40.40945l17.448853 69.19685" fill-rule="evenodd"/><path stroke="#b7b7b7" stroke-width="3.0" stroke-linejoin="round" stroke-linecap="butt" stroke-dasharray="3.0,9.0" d="m578.5965 40.40945l17.448853 69.19685" fill-rule="evenodd"/><path fill="#000000" fill-opacity="0.0" d="m703.5679 168.5049l24.15747 0.12599182" fill-rule="evenodd"/><path stroke="#b7b7b7" stroke-width="3.0" stroke-linejoin="round" stroke-linecap="butt" d="m703.5678 168.5049l6.157776 0.03211975" fill-rule="evenodd"/><path fill="#b7b7b7" stroke="#b7b7b7" stroke-width="3.0" stroke-linecap="butt" d="m709.6997 173.49214l13.639954 -4.8841248l-13.588257 -5.0261383z" fill-rule="evenodd"/><path fill="#000000" fill-opacity="0.0" d="m927.60443 168.64337l24.99646 0l0 152.88702l-845.09094 0l0 -94.08388" fill-rule="evenodd"/><path stroke="#b7b7b7" stroke-width="3.0" stroke-linejoin="round" stroke-linecap="butt" stroke-dasharray="12.0,9.0" d="m927.60443 168.64337l24.99646 0l0 152.88702l-845.09094 0l0 -76.08388" fill-rule="evenodd"/><path fill="#b7b7b7" stroke="#b7b7b7" stroke-width="3.0" stroke-linecap="butt" d="m112.46512 245.44652l-4.9551926 -13.614288l-4.9552 13.614288z" fill-rule="evenodd"/><path fill="#000000" fill-opacity="0.0" d="m213.56068 188.27359l32.125977 0" fill-rule="evenodd"/><path stroke="#b7b7b7" stroke-width="3.0" stroke-linejoin="round" stroke-linecap="butt" d="m213.56067 188.2736l14.125992 0" fill-rule="evenodd"/><path fill="#b7b7b7" stroke="#b7b7b7" stroke-width="3.0" stroke-linecap="butt" d="m227.68666 193.2288l13.614288 -4.9552l-13.614288 -4.9552z" fill-rule="evenodd"/><path fill="#000000" fill-opacity="0.0" d="m457.78232 188.27357l30.771667 -19.779526" fill-rule="evenodd"/><path stroke="#b7b7b7" stroke-width="3.0" stroke-linejoin="round" stroke-linecap="butt" d="m457.78232 188.27356l15.629913 -10.046661" fill-rule="evenodd"/><path fill="#b7b7b7" stroke="#b7b7b7" stroke-width="3.0" stroke-linecap="butt" d="m476.09158 182.39523l8.773102 -11.52977l-14.131775 3.1930847z" fill-rule="evenodd"/><path fill="#f4cccc" d="m244.22147 227.43823l2.9044495 -78.32933l209.20416 0l2.90448 78.32933z" fill-rule="evenodd"/><path fill="#666666" d="m274.0444 175.13503l-7.15625 0l0 7.53125l-2.25 0l0 -17.0625l10.5625 0l0 1.84375l-8.3125 0l0 5.84375l7.15625 0l0 1.84375zm5.875 7.53125l-2.171875 0l0 -12.6875l2.171875 0l0 12.6875zm-2.34375 -16.046875q0 -0.53125 0.3125 -0.890625q0.328125 -0.359375 0.953125 -0.359375q0.640625 0 0.96875 0.359375q0.328125 0.359375 0.328125 0.890625q0 0.53125 -0.328125 0.890625q-0.328125 0.34375 -0.96875 0.34375q-0.625 0 -0.953125 -0.34375q-0.3125 -0.359375 -0.3125 -0.890625zm7.8554688 3.359375l0.078125 1.59375q1.453125 -1.828125 3.796875 -1.828125q4.015625 0 4.046875 4.546875l0 8.375l-2.15625 0l0 -8.390625q-0.015625 -1.375 -0.640625 -2.03125q-0.609375 -0.65625 -1.90625 -0.65625q-1.0625 0 -1.859375 0.5625q-0.796875 0.5625 -1.234375 1.484375l0 9.03125l-2.171875 0l0 -12.6875l2.046875 0zm13.5546875 12.6875l-2.171875 0l0 -12.6875l2.171875 0l0 12.6875zm-2.34375 -16.046875q0 -0.53125 0.3125 -0.890625q0.328125 -0.359375 0.953125 -0.359375q0.640625 0 0.96875 0.359375q0.328125 0.359375 0.328125 0.890625q0 0.53125 -0.328125 0.890625q-0.328125 0.34375 -0.96875 0.34375q-0.625 0 -0.953125 -0.34375q-0.3125 -0.359375 -0.3125 -0.890625zm13.199219 12.6875q0 -0.890625 -0.671875 -1.375q-0.65625 -0.484375 -2.3125 -0.828125q-1.640625 -0.359375 -2.609375 -0.84375q-0.96875 -0.5 -1.4375 -1.171875q-0.453125 -0.6875 -0.453125 -1.625q0 -1.5625 1.3125 -2.640625q1.328125 -1.078125 3.375 -1.078125q2.15625 0 3.5 1.125q1.34375 1.109375 1.34375 2.84375l-2.1875 0q0 -0.890625 -0.75 -1.53125q-0.75 -0.65625 -1.90625 -0.65625q-1.1875 0 -1.859375 0.515625q-0.65625 0.515625 -0.65625 1.359375q0 0.78125 0.609375 1.1875q0.625 0.390625 2.25 0.75q1.625 0.359375 2.625 0.875q1.015625 0.5 1.5 1.21875q0.484375 0.703125 0.484375 1.71875q0 1.703125 -1.359375 2.734375q-1.359375 1.015625 -3.515625 1.015625q-1.53125 0 -2.703125 -0.53125q-1.171875 -0.546875 -1.84375 -1.515625q-0.65625 -0.96875 -0.65625 -2.09375l2.171875 0q0.0625 1.09375 0.875 1.734375q0.8125 0.640625 2.15625 0.640625q1.21875 0 1.96875 -0.5q0.75 -0.5 0.75 -1.328125zm7.15625 -7.78125q1.4375 -1.78125 3.75 -1.78125q4.015625 0 4.046875 4.546875l0 8.375l-2.15625 0l0 -8.390625q-0.015625 -1.375 -0.640625 -2.03125q-0.609375 -0.65625 -1.90625 -0.65625q-1.0625 0 -1.859375 0.5625q-0.796875 0.5625 -1.234375 1.484375l0 9.03125l-2.171875 0l0 -18.0l2.171875 0l0 6.859375zm16.3125 11.375q-2.578125 0 -4.203125 -1.6875q-1.609375 -1.703125 -1.609375 -4.53125l0 -0.40625q0 -1.890625 0.71875 -3.359375q0.71875 -1.484375 2.015625 -2.328125q1.296875 -0.84375 2.8125 -0.84375q2.46875 0 3.828125 1.640625q1.375 1.625 1.375 4.65625l0 0.90625l-8.578125 0q0.046875 1.875 1.09375 3.03125q1.046875 1.15625 2.65625 1.15625q1.15625 0 1.953125 -0.46875q0.796875 -0.46875 1.390625 -1.25l1.328125 1.03125q-1.59375 2.453125 -4.78125 2.453125zm-0.265625 -11.375q-1.3125 0 -2.203125 0.96875q-0.890625 0.953125 -1.109375 2.671875l6.359375 0l0 -0.171875q-0.09375 -1.640625 -0.890625 -2.546875q-0.796875 -0.921875 -2.15625 -0.921875zm7.1835938 4.6875q0 -2.90625 1.375 -4.6875q1.390625 -1.78125 3.640625 -1.78125q2.21875 0 3.515625 1.53125l0 -6.609375l2.171875 0l0 18.0l-1.984375 0l-0.109375 -1.359375q-1.296875 1.59375 -3.625 1.59375q-2.203125 0 -3.59375 -1.796875q-1.390625 -1.8125 -1.390625 -4.71875l0 -0.171875zm2.171875 0.25q0 2.15625 0.890625 3.375q0.890625 1.21875 2.46875 1.21875q2.0625 0 3.0 -1.84375l0 -5.828125q-0.96875 -1.796875 -2.984375 -1.796875q-1.59375 0 -2.484375 1.234375q-0.890625 1.234375 -0.890625 3.640625zm28.554688 0q0 2.890625 -1.328125 4.671875q-1.328125 1.765625 -3.59375 1.765625q-2.296875 0 -3.625 -1.46875l0 6.109375l-2.171875 0l0 -17.5625l1.984375 0l0.109375 1.40625q1.3125 -1.640625 3.671875 -1.640625q2.28125 0 3.609375 1.734375q1.34375 1.71875 1.34375 4.78125l0 0.203125zm-2.171875 -0.25q0 -2.140625 -0.921875 -3.375q-0.90625 -1.25 -2.5 -1.25q-1.96875 0 -2.953125 1.75l0 6.0625q0.96875 1.734375 2.96875 1.734375q1.5625 0 2.484375 -1.234375q0.921875 -1.25 0.921875 -3.6875zm11.042969 -4.28125q-0.484375 -0.078125 -1.0625 -0.078125q-2.125 0 -2.890625 1.8125l0 9.0l-2.171875 0l0 -12.6875l2.109375 0l0.03125 1.46875q1.078125 -1.703125 3.03125 -1.703125q0.625 0 0.953125 0.171875l0 2.015625zm1.1835938 4.28125q0 -1.875 0.734375 -3.359375q0.734375 -1.484375 2.03125 -2.296875q1.3125 -0.8125 3.0 -0.8125q2.578125 0 4.171875 1.796875q1.609375 1.796875 1.609375 4.765625l0 0.15625q0 1.859375 -0.71875 3.328125q-0.703125 1.46875 -2.015625 2.296875q-1.3125 0.8125 -3.03125 0.8125q-2.578125 0 -4.1875 -1.796875q-1.59375 -1.796875 -1.59375 -4.75l0 -0.140625zm2.1875 0.25q0 2.109375 0.96875 3.390625q0.984375 1.28125 2.625 1.28125q1.65625 0 2.625 -1.296875q0.96875 -1.296875 0.96875 -3.625q0 -2.09375 -0.984375 -3.390625q-0.984375 -1.296875 -2.625 -1.296875q-1.609375 0 -2.59375 1.28125q-0.984375 1.28125 -0.984375 3.65625zm11.546875 -0.25q0 -2.90625 1.375 -4.6875q1.390625 -1.78125 3.640625 -1.78125q2.21875 0 3.515625 1.53125l0 -6.609375l2.171875 0l0 18.0l-1.984375 0l-0.109375 -1.359375q-1.296875 1.59375 -3.625 1.59375q-2.203125 0 -3.59375 -1.796875q-1.390625 -1.8125 -1.390625 -4.71875l0 -0.171875zm2.171875 0.25q0 2.15625 0.890625 3.375q0.890625 1.21875 2.46875 1.21875q2.0625 0 3.0 -1.84375l0 -5.828125q-0.96875 -1.796875 -2.984375 -1.796875q-1.59375 0 -2.484375 1.234375q-0.890625 1.234375 -0.890625 3.640625zm19.722656 4.953125q-1.265625 1.484375 -3.71875 1.484375q-2.015625 0 -3.078125 -1.171875q-1.0625 -1.1875 -1.078125 -3.5l0 -8.25l2.171875 0l0 8.203125q0 2.875 2.34375 2.875q2.484375 0 3.296875 -1.84375l0 -9.234375l2.171875 0l0 12.6875l-2.0625 0l-0.046875 -1.25zm10.496094 -0.28125q1.15625 0 2.015625 -0.703125q0.875 -0.703125 0.96875 -1.765625l2.046875 0q-0.0625 1.09375 -0.75 2.078125q-0.6875 0.984375 -1.84375 1.578125q-1.15625 0.578125 -2.4375 0.578125q-2.59375 0 -4.125 -1.71875q-1.53125 -1.734375 -1.53125 -4.734375l0 -0.375q0 -1.84375 0.671875 -3.28125q0.6875 -1.453125 1.953125 -2.25q1.28125 -0.796875 3.015625 -0.796875q2.125 0 3.53125 1.28125q1.421875 1.28125 1.515625 3.3125l-2.046875 0q-0.09375 -1.21875 -0.9375 -2.015625q-0.828125 -0.796875 -2.0625 -0.796875q-1.65625 0 -2.5625 1.203125q-0.90625 1.1875 -0.90625 3.4375l0 0.40625q0 2.1875 0.890625 3.375q0.90625 1.1875 2.59375 1.1875zm10.40625 -14.21875l0 3.0625l2.375 0l0 1.6875l-2.375 0l0 7.859375q0 0.765625 0.3125 1.140625q0.328125 0.375 1.09375 0.375q0.375 0 1.03125 -0.140625l0 1.765625q-0.859375 0.234375 -1.671875 0.234375q-1.453125 0 -2.1875 -0.875q-0.734375 -0.890625 -0.734375 -2.5l0 -7.859375l-2.3125 0l0 -1.6875l2.3125 0l0 -3.0625l2.15625 0z" fill-rule="nonzero"/><path fill="#666666" d="m316.4858 205.46315q0 2.890625 -1.328125 4.671875q-1.328125 1.765625 -3.59375 1.765625q-2.296875 0 -3.625 -1.46875l0 6.109375l-2.171875 0l0 -17.5625l1.984375 0l0.109375 1.40625q1.3125 -1.640625 3.671875 -1.640625q2.28125 0 3.609375 1.734375q1.34375 1.71875 1.34375 4.78125l0 0.203125zm-2.171875 -0.25q0 -2.140625 -0.921875 -3.375q-0.90625 -1.25 -2.5 -1.25q-1.96875 0 -2.953125 1.75l0 6.0625q0.96875 1.734375 2.96875 1.734375q1.5625 0 2.484375 -1.234375q0.921875 -1.25 0.921875 -3.6875zm11.042969 -4.28125q-0.484375 -0.078125 -1.0625 -0.078125q-2.125 0 -2.890625 1.8125l0 9.0l-2.171875 0l0 -12.6875l2.109375 0l0.03125 1.46875q1.078125 -1.703125 3.03125 -1.703125q0.625 0 0.953125 0.171875l0 2.015625zm1.1835938 4.28125q0 -1.875 0.734375 -3.359375q0.734375 -1.484375 2.03125 -2.296875q1.3125 -0.8125 3.0 -0.8125q2.578125 0 4.171875 1.796875q1.609375 1.796875 1.609375 4.765625l0 0.15625q0 1.859375 -0.71875 3.328125q-0.703125 1.46875 -2.015625 2.296875q-1.3125 0.8125 -3.03125 0.8125q-2.578125 0 -4.1875 -1.796875q-1.59375 -1.796875 -1.59375 -4.75l0 -0.140625zm2.1875 0.25q0 2.109375 0.96875 3.390625q0.984375 1.28125 2.625 1.28125q1.65625 0 2.625 -1.296875q0.96875 -1.296875 0.96875 -3.625q0 -2.09375 -0.984375 -3.390625q-0.984375 -1.296875 -2.625 -1.296875q-1.609375 0 -2.59375 1.28125q-0.984375 1.28125 -0.984375 3.65625zm11.546875 -0.25q0 -2.90625 1.375 -4.6875q1.390625 -1.78125 3.640625 -1.78125q2.21875 0 3.515625 1.53125l0 -6.609375l2.171875 0l0 18.0l-1.984375 0l-0.109375 -1.359375q-1.296875 1.59375 -3.625 1.59375q-2.203125 0 -3.59375 -1.796875q-1.390625 -1.8125 -1.390625 -4.71875l0 -0.171875zm2.171875 0.25q0 2.15625 0.890625 3.375q0.890625 1.21875 2.46875 1.21875q2.0625 0 3.0 -1.84375l0 -5.828125q-0.96875 -1.796875 -2.984375 -1.796875q-1.59375 0 -2.484375 1.234375q-0.890625 1.234375 -0.890625 3.640625zm19.722656 4.953125q-1.265625 1.484375 -3.71875 1.484375q-2.015625 0 -3.078125 -1.171875q-1.0625 -1.1875 -1.078125 -3.5l0 -8.25l2.171875 0l0 8.203125q0 2.875 2.34375 2.875q2.484375 0 3.296875 -1.84375l0 -9.234375l2.171875 0l0 12.6875l-2.0625 0l-0.046875 -1.25zm10.496094 -0.28125q1.15625 0 2.015625 -0.703125q0.875 -0.703125 0.96875 -1.765625l2.046875 0q-0.0625 1.09375 -0.75 2.078125q-0.6875 0.984375 -1.84375 1.578125q-1.15625 0.578125 -2.4375 0.578125q-2.59375 0 -4.125 -1.71875q-1.53125 -1.734375 -1.53125 -4.734375l0 -0.375q0 -1.84375 0.671875 -3.28125q0.6875 -1.453125 1.953125 -2.25q1.28125 -0.796875 3.015625 -0.796875q2.125 0 3.53125 1.28125q1.421875 1.28125 1.515625 3.3125l-2.046875 0q-0.09375 -1.21875 -0.9375 -2.015625q-0.828125 -0.796875 -2.0625 -0.796875q-1.65625 0 -2.5625 1.203125q-0.90625 1.1875 -0.90625 3.4375l0 0.40625q0 2.1875 0.890625 3.375q0.90625 1.1875 2.59375 1.1875zm12.734375 1.765625q-2.578125 0 -4.203125 -1.6875q-1.609375 -1.703125 -1.609375 -4.53125l0 -0.40625q0 -1.890625 0.71875 -3.359375q0.71875 -1.484375 2.015625 -2.328125q1.296875 -0.84375 2.8125 -0.84375q2.46875 0 3.828125 1.640625q1.375 1.625 1.375 4.65625l0 0.90625l-8.578125 0q0.046875 1.875 1.09375 3.03125q1.046875 1.15625 2.65625 1.15625q1.15625 0 1.953125 -0.46875q0.796875 -0.46875 1.390625 -1.25l1.328125 1.03125q-1.59375 2.453125 -4.78125 2.453125zm-0.265625 -11.375q-1.3125 0 -2.203125 0.96875q-0.890625 0.953125 -1.109375 2.671875l6.359375 0l0 -0.171875q-0.09375 -1.640625 -0.890625 -2.546875q-0.796875 -0.921875 -2.15625 -0.921875zm13.839844 0.40625q-0.484375 -0.078125 -1.0625 -0.078125q-2.125 0 -2.890625 1.8125l0 9.0l-2.171875 0l0 -12.6875l2.109375 0l0.03125 1.46875q1.078125 -1.703125 3.03125 -1.703125q0.625 0 0.953125 0.171875l0 2.015625z" fill-rule="nonzero"/><path fill="#f4cccc" d="m269.3622 80.79746l17.170776 0l0 68.30341l-17.170776 0z" fill-rule="evenodd"/><path fill="#f4cccc" d="m336.79803 149.10861l0 -31.107582l-50.277283 31.107582z" fill-rule="evenodd"/><path fill="#f4cccc" d="m387.06528 149.10861l0 -31.107582l-50.277283 31.107582z" fill-rule="evenodd"/><path fill="#f4cccc" d="m437.33252 149.10861l0 -31.107582l-50.277283 31.107582z" fill-rule="evenodd"/><path fill="#abeaff" d="m-1.7532808E-4 227.43826l2.9044514 -78.32933l209.20418 0l2.9044495 78.32933z" fill-rule="evenodd"/><path fill="#666666" d="m39.914566 175.76004l-4.0 0l0 6.90625l-2.265625 0l0 -17.0625l5.65625 0q2.875 0 4.421875 1.3125q1.5625 1.3125 1.5625 3.8125q0 1.59375 -0.859375 2.78125q-0.859375 1.1875 -2.40625 1.765625l4.015625 7.25l0 0.140625l-2.421875 0l-3.703125 -6.90625zm-4.0 -1.84375l3.453125 0q1.671875 0 2.65625 -0.859375q1.0 -0.875 1.0 -2.328125q0 -1.578125 -0.953125 -2.421875q-0.9375 -0.84375 -2.71875 -0.859375l-3.4375 0l0 6.46875zm20.011719 8.75q-0.1875 -0.375 -0.296875 -1.34375q-1.515625 1.578125 -3.609375 1.578125q-1.875 0 -3.078125 -1.0625q-1.203125 -1.0625 -1.203125 -2.6875q0 -1.984375 1.5 -3.078125q1.515625 -1.09375 4.234375 -1.09375l2.109375 0l0 -1.0q0 -1.140625 -0.6875 -1.8125q-0.671875 -0.671875 -1.984375 -0.671875q-1.171875 0 -1.953125 0.59375q-0.78125 0.578125 -0.78125 1.40625l-2.1875 0q0 -0.9375 0.671875 -1.828125q0.6875 -0.890625 1.828125 -1.40625q1.15625 -0.515625 2.546875 -0.515625q2.1875 0 3.421875 1.109375q1.25 1.09375 1.296875 3.015625l0 5.828125q0 1.75 0.453125 2.78125l0 0.1875l-2.28125 0zm-3.59375 -1.65625q1.015625 0 1.921875 -0.515625q0.921875 -0.53125 1.328125 -1.375l0 -2.609375l-1.6875 0q-3.984375 0 -3.984375 2.328125q0 1.03125 0.671875 1.609375q0.6875 0.5625 1.75 0.5625zm20.054688 -1.328125l2.4375 -9.703125l2.15625 0l-3.6875 12.6875l-1.75 0l-3.09375 -9.609375l-3.0 9.609375l-1.75 0l-3.6875 -12.6875l2.15625 0l2.5 9.5l2.953125 -9.5l1.75 0l3.015625 9.703125zm14.7890625 -9.703125l0.046875 1.40625q1.40625 -1.640625 3.765625 -1.640625q2.65625 0 3.625 2.046875q0.625 -0.921875 1.640625 -1.484375q1.015625 -0.5625 2.40625 -0.5625q4.171875 0 4.234375 4.421875l0 8.5l-2.171875 0l0 -8.375q0 -1.359375 -0.625 -2.03125q-0.609375 -0.671875 -2.078125 -0.671875q-1.203125 0 -2.0 0.71875q-0.796875 0.71875 -0.921875 1.9375l0 8.421875l-2.1875 0l0 -8.3125q0 -2.765625 -2.703125 -2.765625q-2.140625 0 -2.921875 1.8125l0 9.265625l-2.171875 0l0 -12.6875l2.0625 0zm26.816406 12.6875q-0.1875 -0.375 -0.296875 -1.34375q-1.515625 1.578125 -3.609375 1.578125q-1.875 0 -3.078125 -1.0625q-1.203125 -1.0625 -1.203125 -2.6875q0 -1.984375 1.5 -3.078125q1.515625 -1.09375 4.234375 -1.09375l2.109375 0l0 -1.0q0 -1.140625 -0.6875 -1.8125q-0.671875 -0.671875 -1.984375 -0.671875q-1.171875 0 -1.953125 0.59375q-0.78125 0.578125 -0.78125 1.40625l-2.1875 0q0 -0.9375 0.671875 -1.828125q0.6875 -0.890625 1.828125 -1.40625q1.15625 -0.515625 2.546875 -0.515625q2.1875 0 3.421875 1.109375q1.25 1.09375 1.296875 3.015625l0 5.828125q0 1.75 0.453125 2.78125l0 0.1875l-2.28125 0zm-3.59375 -1.65625q1.015625 0 1.921875 -0.515625q0.921875 -0.53125 1.328125 -1.375l0 -2.609375l-1.6875 0q-3.984375 0 -3.984375 2.328125q0 1.03125 0.671875 1.609375q0.6875 0.5625 1.75 0.5625zm11.7578125 -14.09375l0 3.0625l2.375 0l0 1.6875l-2.375 0l0 7.859375q0 0.765625 0.3125 1.140625q0.328125 0.375 1.09375 0.375q0.375 0 1.03125 -0.140625l0 1.765625q-0.859375 0.234375 -1.671875 0.234375q-1.453125 0 -2.1875 -0.875q-0.734375 -0.890625 -0.734375 -2.5l0 -7.859375l-2.3125 0l0 -1.6875l2.3125 0l0 -3.0625l2.15625 0zm10.167969 15.984375q-2.578125 0 -4.203125 -1.6875q-1.609375 -1.703125 -1.609375 -4.53125l0 -0.40625q0 -1.890625 0.71875 -3.359375q0.71875 -1.484375 2.015625 -2.328125q1.296875 -0.84375 2.8125 -0.84375q2.46875 0 3.828125 1.640625q1.375 1.625 1.375 4.65625l0 0.90625l-8.578125 0q0.046875 1.875 1.09375 3.03125q1.046875 1.15625 2.65625 1.15625q1.15625 0 1.953125 -0.46875q0.796875 -0.46875 1.390625 -1.25l1.328125 1.03125q-1.59375 2.453125 -4.78125 2.453125zm-0.265625 -11.375q-1.3125 0 -2.203125 0.96875q-0.890625 0.953125 -1.109375 2.671875l6.359375 0l0 -0.171875q-0.09375 -1.640625 -0.890625 -2.546875q-0.796875 -0.921875 -2.15625 -0.921875zm13.839844 0.40625q-0.484375 -0.078125 -1.0625 -0.078125q-2.125 0 -2.890625 1.8125l0 9.0l-2.171875 0l0 -12.6875l2.109375 0l0.03125 1.46875q1.078125 -1.703125 3.03125 -1.703125q0.625 0 0.953125 0.171875l0 2.015625zm4.3554688 10.734375l-2.171875 0l0 -12.6875l2.171875 0l0 12.6875zm-2.34375 -16.046875q0 -0.53125 0.3125 -0.890625q0.328125 -0.359375 0.953125 -0.359375q0.640625 0 0.96875 0.359375q0.328125 0.359375 0.328125 0.890625q0 0.53125 -0.328125 0.890625q-0.328125 0.34375 -0.96875 0.34375q-0.625 0 -0.953125 -0.34375q-0.3125 -0.359375 -0.3125 -0.890625zm13.636719 16.046875q-0.1875 -0.375 -0.296875 -1.34375q-1.515625 1.578125 -3.609375 1.578125q-1.875 0 -3.078125 -1.0625q-1.203125 -1.0625 -1.203125 -2.6875q0 -1.984375 1.5 -3.078125q1.515625 -1.09375 4.234375 -1.09375l2.109375 0l0 -1.0q0 -1.140625 -0.6875 -1.8125q-0.671875 -0.671875 -1.984375 -0.671875q-1.171875 0 -1.953125 0.59375q-0.78125 0.578125 -0.78125 1.40625l-2.1875 0q0 -0.9375 0.671875 -1.828125q0.6875 -0.890625 1.828125 -1.40625q1.15625 -0.515625 2.546875 -0.515625q2.1875 0 3.421875 1.109375q1.25 1.09375 1.296875 3.015625l0 5.828125q0 1.75 0.453125 2.78125l0 0.1875l-2.28125 0zm-3.59375 -1.65625q1.015625 0 1.921875 -0.515625q0.921875 -0.53125 1.328125 -1.375l0 -2.609375l-1.6875 0q-3.984375 0 -3.984375 2.328125q0 1.03125 0.671875 1.609375q0.6875 0.5625 1.75 0.5625zm11.1796875 1.65625l-2.171875 0l0 -18.0l2.171875 0l0 18.0zm10.855469 -3.359375q0 -0.890625 -0.671875 -1.375q-0.65625 -0.484375 -2.3125 -0.828125q-1.640625 -0.359375 -2.609375 -0.84375q-0.96875 -0.5 -1.4375 -1.171875q-0.453125 -0.6875 -0.453125 -1.625q0 -1.5625 1.3125 -2.640625q1.328125 -1.078125 3.375 -1.078125q2.15625 0 3.5 1.125q1.34375 1.109375 1.34375 2.84375l-2.1875 0q0 -0.890625 -0.75 -1.53125q-0.75 -0.65625 -1.90625 -0.65625q-1.1875 0 -1.859375 0.515625q-0.65625 0.515625 -0.65625 1.359375q0 0.78125 0.609375 1.1875q0.625 0.390625 2.25 0.75q1.625 0.359375 2.625 0.875q1.015625 0.5 1.5 1.21875q0.484375 0.703125 0.484375 1.71875q0 1.703125 -1.359375 2.734375q-1.359375 1.015625 -3.515625 1.015625q-1.53125 0 -2.703125 -0.53125q-1.171875 -0.546875 -1.84375 -1.515625q-0.65625 -0.96875 -0.65625 -2.09375l2.171875 0q0.0625 1.09375 0.875 1.734375q0.8125 0.640625 2.15625 0.640625q1.21875 0 1.96875 -0.5q0.75 -0.5 0.75 -1.328125z" fill-rule="nonzero"/><path fill="#666666" d="m72.264175 205.46317q0 2.890625 -1.328125 4.671875q-1.328125 1.765625 -3.59375 1.765625q-2.296875 0 -3.625 -1.46875l0 6.109375l-2.171875 0l0 -17.5625l1.984375 0l0.109375 1.40625q1.3125 -1.640625 3.671875 -1.640625q2.28125 0 3.609375 1.734375q1.34375 1.71875 1.34375 4.78125l0 0.203125zm-2.171875 -0.25q0 -2.140625 -0.921875 -3.375q-0.90625 -1.25 -2.5 -1.25q-1.96875 0 -2.953125 1.75l0 6.0625q0.96875 1.734375 2.96875 1.734375q1.5625 0 2.484375 -1.234375q0.921875 -1.25 0.921875 -3.6875zm11.042969 -4.28125q-0.484375 -0.078125 -1.0625 -0.078125q-2.125 0 -2.890625 1.8125l0 9.0l-2.171875 0l0 -12.6875l2.109375 0l0.03125 1.46875q1.078125 -1.703125 3.03125 -1.703125q0.625 0 0.953125 0.171875l0 2.015625zm1.1835938 4.28125q0 -1.875 0.734375 -3.359375q0.734375 -1.484375 2.03125 -2.296875q1.3125 -0.8125 3.0 -0.8125q2.578125 0 4.171875 1.796875q1.609375 1.796875 1.609375 4.765625l0 0.15625q0 1.859375 -0.71875 3.328125q-0.703125 1.46875 -2.015625 2.296875q-1.3125 0.8125 -3.03125 0.8125q-2.578125 0 -4.1875 -1.796875q-1.59375 -1.796875 -1.59375 -4.75l0 -0.140625zm2.1875 0.25q0 2.109375 0.96875 3.390625q0.984375 1.28125 2.625 1.28125q1.65625 0 2.625 -1.296875q0.96875 -1.296875 0.96875 -3.625q0 -2.09375 -0.984375 -3.390625q-0.984375 -1.296875 -2.625 -1.296875q-1.609375 0 -2.59375 1.28125q-0.984375 1.28125 -0.984375 3.65625zm11.546875 -0.25q0 -2.90625 1.375 -4.6875q1.390625 -1.78125 3.640625 -1.78125q2.21875 0 3.515625 1.53125l0 -6.609375l2.171875 0l0 18.0l-1.984375 0l-0.109375 -1.359375q-1.296875 1.59375 -3.625 1.59375q-2.203125 0 -3.59375 -1.796875q-1.390625 -1.8125 -1.390625 -4.71875l0 -0.171875zm2.171875 0.25q0 2.15625 0.890625 3.375q0.890625 1.21875 2.46875 1.21875q2.0625 0 3.0 -1.84375l0 -5.828125q-0.96875 -1.796875 -2.984375 -1.796875q-1.59375 0 -2.484375 1.234375q-0.890625 1.234375 -0.890625 3.640625zm19.722656 4.953125q-1.265625 1.484375 -3.71875 1.484375q-2.015625 0 -3.078125 -1.171875q-1.0625 -1.1875 -1.078125 -3.5l0 -8.25l2.171875 0l0 8.203125q0 2.875 2.34375 2.875q2.484375 0 3.296875 -1.84375l0 -9.234375l2.171875 0l0 12.6875l-2.0625 0l-0.046875 -1.25zm10.496094 -0.28125q1.15625 0 2.015625 -0.703125q0.875 -0.703125 0.96875 -1.765625l2.046875 0q-0.0625 1.09375 -0.75 2.078125q-0.6875 0.984375 -1.84375 1.578125q-1.15625 0.578125 -2.4375 0.578125q-2.59375 0 -4.125 -1.71875q-1.53125 -1.734375 -1.53125 -4.734375l0 -0.375q0 -1.84375 0.671875 -3.28125q0.6875 -1.453125 1.953125 -2.25q1.28125 -0.796875 3.015625 -0.796875q2.125 0 3.53125 1.28125q1.421875 1.28125 1.515625 3.3125l-2.046875 0q-0.09375 -1.21875 -0.9375 -2.015625q-0.828125 -0.796875 -2.0625 -0.796875q-1.65625 0 -2.5625 1.203125q-0.90625 1.1875 -0.90625 3.4375l0 0.40625q0 2.1875 0.890625 3.375q0.90625 1.1875 2.59375 1.1875zm12.734375 1.765625q-2.578125 0 -4.203125 -1.6875q-1.609375 -1.703125 -1.609375 -4.53125l0 -0.40625q0 -1.890625 0.71875 -3.359375q0.71875 -1.484375 2.015625 -2.328125q1.296875 -0.84375 2.8125 -0.84375q2.46875 0 3.828125 1.640625q1.375 1.625 1.375 4.65625l0 0.90625l-8.578125 0q0.046875 1.875 1.09375 3.03125q1.046875 1.15625 2.65625 1.15625q1.15625 0 1.953125 -0.46875q0.796875 -0.46875 1.390625 -1.25l1.328125 1.03125q-1.59375 2.453125 -4.78125 2.453125zm-0.265625 -11.375q-1.3125 0 -2.203125 0.96875q-0.890625 0.953125 -1.109375 2.671875l6.359375 0l0 -0.171875q-0.09375 -1.640625 -0.890625 -2.546875q-0.796875 -0.921875 -2.15625 -0.921875zm13.839844 0.40625q-0.484375 -0.078125 -1.0625 -0.078125q-2.125 0 -2.890625 1.8125l0 9.0l-2.171875 0l0 -12.6875l2.109375 0l0.03125 1.46875q1.078125 -1.703125 3.03125 -1.703125q0.625 0 0.953125 0.171875l0 2.015625z" fill-rule="nonzero"/><path fill="#abeaff" d="m25.142263 80.797874l17.170767 0l0 68.30343l-17.170767 0z" fill-rule="evenodd"/><path fill="#abeaff" d="m92.57807 149.10902l0 -31.107582l-50.277287 31.107582z" fill-rule="evenodd"/><path fill="#abeaff" d="m142.84532 149.10902l0 -31.107582l-50.27729 31.107582z" fill-rule="evenodd"/><path fill="#abeaff" d="m193.11256 149.10902l0 -31.107582l-50.277283 31.107582z" fill-rule="evenodd"/><path fill="#c9daf8" d="m408.73825 0l152.93399 0c4.4885864 0 8.793335 1.7830893 11.967285 4.9570084c3.1738892 3.1739197 4.95697 7.4786777 4.95697 11.967278l0 63.894615c0 7.7819824E-4 -6.1035156E-4 0.001411438 -0.0014038086 0.001411438l-152.93256 -0.001411438c-9.347015 0 -16.924286 -7.577263 -16.924286 -16.92429l0 -63.89461l0 1.7334698E-19c0 -7.8175106E-4 6.4086914E-4 -0.0014154855 0.0014038086 -0.0014154855z" fill-rule="evenodd"/><path fill="#666666" d="m455.7006 33.730698l-5.484375 0l0 15.21875l-2.234375 0l0 -15.21875l-5.46875 0l0 -1.8437519l13.1875 0l0 1.8437519zm7.4414062 4.484375q-0.484375 -0.078125 -1.0625 -0.078125q-2.125 0 -2.890625 1.8125l0 9.0l-2.171875 0l0 -12.6875l2.109375 0l0.03125 1.46875q1.078125 -1.703125 3.03125 -1.703125q0.625 0 0.953125 0.171875l0 2.015625zm9.355469 10.734375q-0.1875 -0.375 -0.296875 -1.34375q-1.515625 1.578125 -3.609375 1.578125q-1.875 0 -3.078125 -1.0625q-1.203125 -1.0625 -1.203125 -2.6875q0 -1.984375 1.5 -3.078125q1.515625 -1.09375 4.234375 -1.09375l2.109375 0l0 -1.0q0 -1.140625 -0.6875 -1.8125q-0.671875 -0.671875 -1.984375 -0.671875q-1.171875 0 -1.953125 0.59375q-0.78125 0.578125 -0.78125 1.40625l-2.1875 0q0 -0.9375 0.671875 -1.828125q0.6875 -0.890625 1.828125 -1.40625q1.15625 -0.515625 2.546875 -0.515625q2.1875 0 3.421875 1.109375q1.25 1.09375 1.296875 3.015625l0 5.828125q0 1.75 0.453125 2.78125l0 0.1875l-2.28125 0zm-3.59375 -1.65625q1.015625 0 1.921875 -0.515625q0.921875 -0.53125 1.328125 -1.375l0 -2.609375l-1.6875 0q-3.984375 0 -3.984375 2.328125q0 1.03125 0.671875 1.609375q0.6875 0.5625 1.75 0.5625zm10.8671875 -11.03125l0.078125 1.59375q1.453125 -1.828125 3.796875 -1.828125q4.015625 0 4.046875 4.546875l0 8.375l-2.15625 0l0 -8.390625q-0.015625 -1.375 -0.640625 -2.03125q-0.609375 -0.65625 -1.90625 -0.65625q-1.0625 0 -1.859375 0.5625q-0.796875 0.5625 -1.234375 1.484375l0 9.03125l-2.171875 0l0 -12.6875l2.046875 0zm18.585938 9.328125q0 -0.890625 -0.671875 -1.375q-0.65625 -0.484375 -2.3125 -0.828125q-1.640625 -0.359375 -2.609375 -0.84375q-0.96875 -0.5 -1.4375 -1.171875q-0.453125 -0.6875 -0.453125 -1.625q0 -1.5625 1.3125 -2.640625q1.328125 -1.078125 3.375 -1.078125q2.15625 0 3.5 1.125q1.34375 1.109375 1.34375 2.84375l-2.1875 0q0 -0.890625 -0.75 -1.53125q-0.75 -0.65625 -1.90625 -0.65625q-1.1875 0 -1.859375 0.515625q-0.65625 0.515625 -0.65625 1.359375q0 0.78125 0.609375 1.1875q0.625 0.390625 2.25 0.75q1.625 0.359375 2.625 0.875q1.015625 0.5 1.5 1.21875q0.484375 0.703125 0.484375 1.71875q0 1.703125 -1.359375 2.734375q-1.359375 1.015625 -3.515625 1.015625q-1.53125 0 -2.703125 -0.53125q-1.171875 -0.546875 -1.84375 -1.515625q-0.65625 -0.96875 -0.65625 -2.09375l2.171875 0q0.0625 1.09375 0.875 1.734375q0.8125 0.640625 2.15625 0.640625q1.21875 0 1.96875 -0.5q0.75 -0.5 0.75 -1.328125zm15.7030945 -2.84375q0 2.890625 -1.328125 4.671875q-1.3280945 1.765625 -3.5937195 1.765625q-2.296875 0 -3.625 -1.46875l0 6.109375l-2.171875 0l0 -17.5625l1.984375 0l0.109375 1.40625q1.3125 -1.640625 3.671875 -1.640625q2.28125 0 3.6093445 1.734375q1.34375 1.71875 1.34375 4.78125l0 0.203125zm-2.1718445 -0.25q0 -2.140625 -0.921875 -3.375q-0.90625 -1.25 -2.5 -1.25q-1.96875 0 -2.953125 1.75l0 6.0625q0.96875 1.734375 2.96875 1.734375q1.5625 0 2.484375 -1.234375q0.921875 -1.25 0.921875 -3.6875zm4.339813 0q0 -1.875 0.734375 -3.359375q0.734375 -1.484375 2.03125 -2.296875q1.3125 -0.8125 3.0 -0.8125q2.578125 0 4.171875 1.796875q1.609375 1.796875 1.609375 4.765625l0 0.15625q0 1.859375 -0.71875 3.328125q-0.703125 1.46875 -2.015625 2.296875q-1.3125 0.8125 -3.03125 0.8125q-2.578125 0 -4.1875 -1.796875q-1.59375 -1.796875 -1.59375 -4.75l0 -0.140625zm2.1875 0.25q0 2.109375 0.96875 3.390625q0.984375 1.28125 2.625 1.28125q1.65625 0 2.625 -1.296875q0.96875 -1.296875 0.96875 -3.625q0 -2.09375 -0.984375 -3.390625q-0.984375 -1.296875 -2.625 -1.296875q-1.609375 0 -2.59375 1.28125q-0.984375 1.28125 -0.984375 3.65625zm18.203125 -4.53125q-0.484375 -0.078125 -1.0625 -0.078125q-2.125 0 -2.890625 1.8125l0 9.0l-2.171875 0l0 -12.6875l2.109375 0l0.03125 1.46875q1.078125 -1.703125 3.03125 -1.703125q0.625 0 0.953125 0.171875l0 2.015625zm5.5195312 -5.015625l0 3.0625l2.375 0l0 1.6875l-2.375 0l0 7.859375q0 0.765625 0.3125 1.140625q0.328125 0.375 1.09375 0.375q0.375 0 1.03125 -0.140625l0 1.765625q-0.859375 0.234375 -1.671875 0.234375q-1.453125 0 -2.1875 -0.875q-0.734375 -0.890625 -0.734375 -2.5l0 -7.859375l-2.3125 0l0 -1.6875l2.3125 0l0 -3.0625l2.15625 0z" fill-rule="nonzero"/><path fill="#fce5cd" d="m508.17715 109.60726l175.75778 0c5.20697 0 10.200684 2.0684662 13.882568 5.750351c3.6818848 3.6818924 5.750366 8.675606 5.750366 13.882591l0 98.16234c0 9.918213E-4 -7.9345703E-4 0.0017852783 -0.0018310547 0.0017852783l-215.02182 -0.0017852783l0 0c-9.765625E-4 0 -0.0017700195 -8.087158E-4 -0.0017700195 -0.0018005371l0.0017700195 -98.16054l0 0c0 -10.842979 8.789978 -19.632942 19.632935 -19.632942z" fill-rule="evenodd"/><path fill="#666666" d="m542.1244 179.92004l0 -17.0625l4.8125 0q2.234375 0 3.9375 0.984375q1.71875 0.984375 2.640625 2.796875q0.9375 1.8125 0.953125 4.171875l0 1.09375q0 2.40625 -0.9375 4.234375q-0.9375 1.8125 -2.671875 2.78125q-1.71875 0.96875 -4.015625 1.0l-4.71875 0zm2.25 -15.21875l0 13.375l2.359375 0q2.609375 0 4.046875 -1.609375q1.453125 -1.625 1.453125 -4.609375l0 -1.0q0 -2.90625 -1.375 -4.515625q-1.359375 -1.609375 -3.859375 -1.640625l-2.625 0zm15.503906 15.21875l-2.171875 0l0 -12.6875l2.171875 0l0 12.6875zm-2.34375 -16.046875q0 -0.53125 0.3125 -0.890625q0.328125 -0.359375 0.953125 -0.359375q0.640625 0 0.96875 0.359375q0.328125 0.359375 0.328125 0.890625q0 0.53125 -0.328125 0.890625q-0.328125 0.34375 -0.96875 0.34375q-0.625 0 -0.953125 -0.34375q-0.3125 -0.359375 -0.3125 -0.890625zm13.199219 12.6875q0 -0.890625 -0.671875 -1.375q-0.65625 -0.484375 -2.3125 -0.828125q-1.640625 -0.359375 -2.609375 -0.84375q-0.96875 -0.5 -1.4375 -1.171875q-0.453125 -0.6875 -0.453125 -1.625q0 -1.5625 1.3125 -2.640625q1.328125 -1.078125 3.375 -1.078125q2.15625 0 3.5 1.125q1.34375 1.109375 1.34375 2.84375l-2.1875 0q0 -0.890625 -0.75 -1.53125q-0.75 -0.65625 -1.90625 -0.65625q-1.1875 0 -1.859375 0.515625q-0.65625 0.515625 -0.65625 1.359375q0 0.78125 0.609375 1.1875q0.625 0.390625 2.25 0.75q1.625 0.359375 2.625 0.875q1.015625 0.5 1.5 1.21875q0.484375 0.703125 0.484375 1.71875q0 1.703125 -1.359375 2.734375q-1.359375 1.015625 -3.515625 1.015625q-1.53125 0 -2.703125 -0.53125q-1.171875 -0.546875 -1.84375 -1.515625q-0.65625 -0.96875 -0.65625 -2.09375l2.171875 0q0.0625 1.09375 0.875 1.734375q0.8125 0.640625 2.15625 0.640625q1.21875 0 1.96875 -0.5q0.75 -0.5 0.75 -1.328125zm7.921875 -12.390625l0 3.0625l2.375 0l0 1.6875l-2.375 0l0 7.859375q0 0.765625 0.3125 1.140625q0.328125 0.375 1.09375 0.375q0.375 0 1.03125 -0.140625l0 1.765625q-0.859375 0.234375 -1.671875 0.234375q-1.453125 0 -2.1875 -0.875q-0.734375 -0.890625 -0.734375 -2.5l0 -7.859375l-2.3125 0l0 -1.6875l2.3125 0l0 -3.0625l2.15625 0zm11.027344 5.015625q-0.484375 -0.078125 -1.0625 -0.078125q-2.125 0 -2.890625 1.8125l0 9.0l-2.171875 0l0 -12.6875l2.109375 0l0.03125 1.46875q1.078125 -1.703125 3.03125 -1.703125q0.625 0 0.953125 0.171875l0 2.015625zm4.3554688 10.734375l-2.171875 0l0 -12.6875l2.171875 0l0 12.6875zm-2.34375 -16.046875q0 -0.53125 0.3125 -0.890625q0.328125 -0.359375 0.953125 -0.359375q0.640625 0 0.96875 0.359375q0.328125 0.359375 0.328125 0.890625q0 0.53125 -0.328125 0.890625q-0.328125 0.34375 -0.96875 0.34375q-0.625 0 -0.953125 -0.34375q-0.3125 -0.359375 -0.3125 -0.890625zm16.542969 9.84375q0 2.90625 -1.34375 4.671875q-1.328125 1.765625 -3.578125 1.765625q-2.40625 0 -3.71875 -1.703125l-0.09375 1.46875l-2.0 0l0 -18.0l2.171875 0l0 6.71875q1.3125 -1.640625 3.609375 -1.640625q2.3125 0 3.625 1.75q1.328125 1.75 1.328125 4.78125l0 0.1875zm-2.171875 -0.25q0 -2.203125 -0.859375 -3.40625q-0.84375 -1.21875 -2.453125 -1.21875q-2.140625 0 -3.078125 2.0l0 5.484375q1.0 1.984375 3.109375 1.984375q1.546875 0 2.40625 -1.203125q0.875 -1.203125 0.875 -3.640625zm12.730469 5.203125q-1.265625 1.484375 -3.71875 1.484375q-2.015625 0 -3.078125 -1.171875q-1.0625 -1.1875 -1.078125 -3.5l0 -8.25l2.171875 0l0 8.203125q0 2.875 2.34375 2.875q2.484375 0 3.296875 -1.84375l0 -9.234375l2.171875 0l0 12.6875l-2.0625 0l-0.046875 -1.25zm8.339844 -14.5l0 3.0625l2.375 0l0 1.6875l-2.375 0l0 7.859375q0 0.765625 0.3125 1.140625q0.328125 0.375 1.09375 0.375q0.375 0 1.03125 -0.140625l0 1.765625q-0.859375 0.234375 -1.671875 0.234375q-1.453125 0 -2.1875 -0.875q-0.734375 -0.890625 -0.734375 -2.5l0 -7.859375l-2.3125 0l0 -1.6875l2.3125 0l0 -3.0625l2.15625 0zm4.0898438 9.296875q0 -1.875 0.734375 -3.359375q0.734375 -1.484375 2.03125 -2.296875q1.3125 -0.8125 3.0 -0.8125q2.578125 0 4.171875 1.796875q1.609375 1.796875 1.609375 4.765625l0 0.15625q0 1.859375 -0.71875 3.328125q-0.703125 1.46875 -2.015625 2.296875q-1.3125 0.8125 -3.03125 0.8125q-2.578125 0 -4.1875 -1.796875q-1.59375 -1.796875 -1.59375 -4.75l0 -0.140625zm2.1875 0.25q0 2.109375 0.96875 3.390625q0.984375 1.28125 2.625 1.28125q1.65625 0 2.625 -1.296875q0.96875 -1.296875 0.96875 -3.625q0 -2.09375 -0.984375 -3.390625q-0.984375 -1.296875 -2.625 -1.296875q-1.609375 0 -2.59375 1.28125q-0.984375 1.28125 -0.984375 3.65625zm18.203125 -4.53125q-0.484375 -0.078125 -1.0625 -0.078125q-2.125 0 -2.890625 1.8125l0 9.0l-2.171875 0l0 -12.6875l2.109375 0l0.03125 1.46875q1.078125 -1.703125 3.03125 -1.703125q0.625 0 0.953125 0.171875l0 2.015625z" fill-rule="nonzero"/><path fill="#bdff5f" fill-opacity="0.4115" d="m759.87445 109.7451l135.57208 0l0 0c17.760315 0 32.157898 26.36966 32.157898 58.89827c0 32.52861 -14.397583 58.89827 -32.157898 58.89827l-135.57208 0l0 0c-17.760315 0 -32.157898 -26.36966 -32.157898 -58.89827c0 -32.52861 14.397583 -58.89827 32.157898 -58.89827z" fill-rule="evenodd"/><path fill="#666666" d="m787.17804 171.76149q-0.3125 2.71875 -2.0 4.1875q-1.671875 1.46875 -4.46875 1.46875q-3.015625 0 -4.84375 -2.171875q-1.828125 -2.171875 -1.828125 -5.796875l0 -1.640625q0 -2.375 0.84375 -4.171875q0.859375 -1.8125 2.421875 -2.78125q1.5625 -0.96875 3.609375 -0.96875q2.71875 0 4.359375 1.515625q1.640625 1.515625 1.90625 4.203125l-2.265625 0q-0.28125 -2.046875 -1.265625 -2.953125q-0.984375 -0.921875 -2.734375 -0.921875q-2.15625 0 -3.390625 1.59375q-1.21875 1.59375 -1.21875 4.546875l0 1.640625q0 2.78125 1.15625 4.421875q1.171875 1.640625 3.25 1.640625q1.875 0 2.875 -0.84375q1.0 -0.859375 1.328125 -2.96875l2.265625 0zm2.1523438 -1.03125q0 -1.875 0.734375 -3.359375q0.734375 -1.484375 2.03125 -2.296875q1.3125 -0.8125 3.0 -0.8125q2.578125 0 4.171875 1.796875q1.609375 1.796875 1.609375 4.765625l0 0.15625q0 1.859375 -0.71875 3.328125q-0.703125 1.46875 -2.015625 2.296875q-1.3125 0.8125 -3.03125 0.8125q-2.578125 0 -4.1875 -1.796875q-1.59375 -1.796875 -1.59375 -4.75l0 -0.140625zm2.1875 0.25q0 2.109375 0.96875 3.390625q0.984375 1.28125 2.625 1.28125q1.65625 0 2.625 -1.296875q0.96875 -1.296875 0.96875 -3.625q0 -2.09375 -0.984375 -3.390625q-0.984375 -1.296875 -2.625 -1.296875q-1.609375 0 -2.59375 1.28125q-0.984375 1.28125 -0.984375 3.65625zm14.125 -6.484375l0.078125 1.59375q1.453125 -1.828125 3.796875 -1.828125q4.015625 0 4.046875 4.546875l0 8.375l-2.15625 0l0 -8.390625q-0.015625 -1.375 -0.640625 -2.03125q-0.609375 -0.65625 -1.90625 -0.65625q-1.0625 0 -1.859375 0.5625q-0.796875 0.5625 -1.234375 1.484375l0 9.03125l-2.171875 0l0 -12.6875l2.046875 0zm18.585938 9.328125q0 -0.890625 -0.671875 -1.375q-0.65625 -0.484375 -2.3125 -0.828125q-1.640625 -0.359375 -2.609375 -0.84375q-0.96875 -0.5 -1.4375 -1.171875q-0.453125 -0.6875 -0.453125 -1.625q0 -1.5625 1.3125 -2.640625q1.328125 -1.078125 3.375 -1.078125q2.15625 0 3.5 1.125q1.34375 1.109375 1.34375 2.84375l-2.1875 0q0 -0.890625 -0.75 -1.53125q-0.75 -0.65625 -1.90625 -0.65625q-1.1875 0 -1.859375 0.515625q-0.65625 0.515625 -0.65625 1.359375q0 0.78125 0.609375 1.1875q0.625 0.390625 2.25 0.75q1.625 0.359375 2.625 0.875q1.015625 0.5 1.5 1.21875q0.484375 0.703125 0.484375 1.71875q0 1.703125 -1.359375 2.734375q-1.359375 1.015625 -3.515625 1.015625q-1.53125 0 -2.703125 -0.53125q-1.171875 -0.546875 -1.84375 -1.515625q-0.65625 -0.96875 -0.65625 -2.09375l2.171875 0q0.0625 1.09375 0.875 1.734375q0.8125 0.640625 2.15625 0.640625q1.21875 0 1.96875 -0.5q0.75 -0.5 0.75 -1.328125zm12.8125 2.109375q-1.265625 1.484375 -3.71875 1.484375q-2.015625 0 -3.078125 -1.171875q-1.0625 -1.1875 -1.078125 -3.5l0 -8.25l2.171875 0l0 8.203125q0 2.875 2.34375 2.875q2.484375 0 3.296875 -1.84375l0 -9.234375l2.171875 0l0 12.6875l-2.0625 0l-0.046875 -1.25zm7.4492188 -11.4375l0.046875 1.40625q1.40625 -1.640625 3.765625 -1.640625q2.65625 0 3.625 2.046875q0.625 -0.921875 1.640625 -1.484375q1.015625 -0.5625 2.40625 -0.5625q4.171875 0 4.234375 4.421875l0 8.5l-2.171875 0l0 -8.375q0 -1.359375 -0.625 -2.03125q-0.609375 -0.671875 -2.078125 -0.671875q-1.203125 0 -2.0 0.71875q-0.796875 0.71875 -0.921875 1.9375l0 8.421875l-2.1875 0l0 -8.3125q0 -2.765625 -2.703125 -2.765625q-2.140625 0 -2.921875 1.8125l0 9.265625l-2.171875 0l0 -12.6875l2.0625 0zm24.253906 12.921875q-2.578125 0 -4.203125 -1.6875q-1.609375 -1.703125 -1.609375 -4.53125l0 -0.40625q0 -1.890625 0.71875 -3.359375q0.71875 -1.484375 2.015625 -2.328125q1.296875 -0.84375 2.8125 -0.84375q2.46875 0 3.828125 1.640625q1.375 1.625 1.375 4.65625l0 0.90625l-8.578125 0q0.046875 1.875 1.09375 3.03125q1.046875 1.15625 2.65625 1.15625q1.15625 0 1.953125 -0.46875q0.796875 -0.46875 1.390625 -1.25l1.328125 1.03125q-1.59375 2.453125 -4.78125 2.453125zm-0.265625 -11.375q-1.3125 0 -2.203125 0.96875q-0.890625 0.953125 -1.109375 2.671875l6.359375 0l0 -0.171875q-0.09375 -1.640625 -0.890625 -2.546875q-0.796875 -0.921875 -2.15625 -0.921875zm13.839844 0.40625q-0.484375 -0.078125 -1.0625 -0.078125q-2.125 0 -2.890625 1.8125l0 9.0l-2.171875 0l0 -12.6875l2.109375 0l0.03125 1.46875q1.078125 -1.703125 3.03125 -1.703125q0.625 0 0.953125 0.171875l0 2.015625z" fill-rule="nonzero"/><path fill="#000000" fill-opacity="0.0" d="m578.5965 40.40945l249.07086 69.32283" fill-rule="evenodd"/><path stroke="#b7b7b7" stroke-width="3.0" stroke-linejoin="round" stroke-linecap="butt" stroke-dasharray="3.0,9.0" d="m578.5965 40.40945l249.07086 69.32283" fill-rule="evenodd"/><path fill="#000000" fill-opacity="0.0" d="m344.44357 268.83203l257.44882 0l0 48.472443l-257.44882 0z" fill-rule="evenodd"/><path fill="#666666" d="m391.17383 293.96576l-4.0 0l0 6.90625l-2.265625 0l0 -17.0625l5.65625 0q2.875 0 4.421875 1.3125q1.5625 1.3125 1.5625 3.8125q0 1.59375 -0.859375 2.78125q-0.859375 1.1875 -2.40625 1.765625l4.015625 7.25l0 0.140625l-2.421875 0l-3.703125 -6.90625zm-4.0 -1.84375l3.453125 0q1.671875 0 2.65625 -0.859375q1.0 -0.875 1.0 -2.328125q0 -1.578125 -0.953125 -2.421875q-0.9375 -0.84375 -2.71875 -0.859375l-3.4375 0l0 6.46875zm17.449219 8.984375q-2.578125 0 -4.203125 -1.6875q-1.609375 -1.703125 -1.609375 -4.53125l0 -0.40625q0 -1.890625 0.71875 -3.359375q0.71875 -1.484375 2.015625 -2.328125q1.296875 -0.84375 2.8125 -0.84375q2.46875 0 3.828125 1.640625q1.375 1.625 1.375 4.65625l0 0.90625l-8.578125 0q0.046875 1.875 1.09375 3.03125q1.046875 1.15625 2.65625 1.15625q1.15625 0 1.953125 -0.46875q0.796875 -0.46875 1.390625 -1.25l1.328125 1.03125q-1.59375 2.453125 -4.78125 2.453125zm-0.265625 -11.375q-1.3125 0 -2.203125 0.96875q-0.890625 0.953125 -1.109375 2.671875l6.359375 0l0 -0.171875q-0.09375 -1.640625 -0.890625 -2.546875q-0.796875 -0.921875 -2.15625 -0.921875zm11.75 8.203125l3.140625 -9.75l2.21875 0l-4.546875 12.6875l-1.65625 0l-4.59375 -12.6875l2.21875 0l3.21875 9.75zm12.550781 3.171875q-2.578125 0 -4.203125 -1.6875q-1.609375 -1.703125 -1.609375 -4.53125l0 -0.40625q0 -1.890625 0.71875 -3.359375q0.71875 -1.484375 2.015625 -2.328125q1.296875 -0.84375 2.8125 -0.84375q2.46875 0 3.828125 1.640625q1.375 1.625 1.375 4.65625l0 0.90625l-8.578125 0q0.046875 1.875 1.09375 3.03125q1.046875 1.15625 2.65625 1.15625q1.15625 0 1.953125 -0.46875q0.796875 -0.46875 1.390625 -1.25l1.328125 1.03125q-1.59375 2.453125 -4.78125 2.453125zm-0.265625 -11.375q-1.3125 0 -2.203125 0.96875q-0.890625 0.953125 -1.109375 2.671875l6.359375 0l0 -0.171875q-0.09375 -1.640625 -0.890625 -2.546875q-0.796875 -0.921875 -2.15625 -0.921875zm13.839844 0.40625q-0.484375 -0.078125 -1.0625 -0.078125q-2.125 0 -2.890625 1.8125l0 9.0l-2.171875 0l0 -12.6875l2.109375 0l0.03125 1.46875q1.078125 -1.703125 3.03125 -1.703125q0.625 0 0.953125 0.171875l0 2.015625zm9.386719 7.375q0 -0.890625 -0.671875 -1.375q-0.65625 -0.484375 -2.3125 -0.828125q-1.640625 -0.359375 -2.609375 -0.84375q-0.96875 -0.5 -1.4375 -1.171875q-0.453125 -0.6875 -0.453125 -1.625q0 -1.5625 1.3125 -2.640625q1.328125 -1.078125 3.375 -1.078125q2.15625 0 3.5 1.125q1.34375 1.109375 1.34375 2.84375l-2.1875 0q0 -0.890625 -0.75 -1.53125q-0.75 -0.65625 -1.90625 -0.65625q-1.1875 0 -1.859375 0.515625q-0.65625 0.515625 -0.65625 1.359375q0 0.78125 0.609375 1.1875q0.625 0.390625 2.25 0.75q1.625 0.359375 2.625 0.875q1.015625 0.5 1.5 1.21875q0.484375 0.703125 0.484375 1.71875q0 1.703125 -1.359375 2.734375q-1.359375 1.015625 -3.515625 1.015625q-1.53125 0 -2.703125 -0.53125q-1.171875 -0.546875 -1.84375 -1.515625q-0.65625 -0.96875 -0.65625 -2.09375l2.171875 0q0.0625 1.09375 0.875 1.734375q0.8125 0.640625 2.15625 0.640625q1.21875 0 1.96875 -0.5q0.75 -0.5 0.75 -1.328125zm10.25 3.59375q-2.578125 0 -4.203125 -1.6875q-1.609375 -1.703125 -1.609375 -4.53125l0 -0.40625q0 -1.890625 0.71875 -3.359375q0.71875 -1.484375 2.015625 -2.328125q1.296875 -0.84375 2.8125 -0.84375q2.46875 0 3.828125 1.640625q1.375 1.625 1.375 4.65625l0 0.90625l-8.578125 0q0.046875 1.875 1.09375 3.03125q1.046875 1.15625 2.65625 1.15625q1.15625 0 1.953125 -0.46875q0.796875 -0.46875 1.390625 -1.25l1.328125 1.03125q-1.59375 2.453125 -4.78125 2.453125zm-0.265625 -11.375q-1.3125 0 -2.203125 0.96875q-0.890625 0.953125 -1.109375 2.671875l6.359375 0l0 -0.171875q-0.09375 -1.640625 -0.890625 -2.546875q-0.796875 -0.921875 -2.15625 -0.921875zm16.015625 11.140625l-2.171875 0l0 -18.0l2.171875 0l0 18.0zm2.8867188 -6.453125q0 -1.875 0.734375 -3.359375q0.734375 -1.484375 2.03125 -2.296875q1.3125 -0.8125 3.0 -0.8125q2.578125 0 4.171875 1.796875q1.609375 1.796875 1.609375 4.765625l0 0.15625q0 1.859375 -0.71875 3.328125q-0.703125 1.46875 -2.015625 2.296875q-1.3125 0.8125 -3.03125 0.8125q-2.578125 0 -4.1875 -1.796875q-1.59375 -1.796875 -1.59375 -4.75l0 -0.140625zm2.1875 0.25q0 2.109375 0.96875 3.390625q0.984375 1.28125 2.625 1.28125q1.65625 0 2.625 -1.296875q0.96875 -1.296875 0.96875 -3.625q0 -2.09375 -0.984375 -3.390625q-0.984375 -1.296875 -2.625 -1.296875q-1.609375 0 -2.59375 1.28125q-0.984375 1.28125 -0.984375 3.65625zm11.5625 -0.25q0 -2.953125 1.375 -4.703125q1.375 -1.765625 3.625 -1.765625q2.328125 0 3.625 1.640625l0.109375 -1.40625l1.984375 0l0 12.375q0 2.46875 -1.46875 3.890625q-1.453125 1.421875 -3.921875 1.421875q-1.359375 0 -2.671875 -0.59375q-1.3125 -0.578125 -2.015625 -1.609375l1.125 -1.296875q1.40625 1.71875 3.421875 1.71875q1.578125 0 2.453125 -0.890625q0.890625 -0.890625 0.890625 -2.5l0 -1.09375q-1.296875 1.5 -3.546875 1.5q-2.234375 0 -3.609375 -1.796875q-1.375 -1.796875 -1.375 -4.890625zm2.1875 0.25q0 2.140625 0.875 3.375q0.875 1.21875 2.453125 1.21875q2.0625 0 3.015625 -1.859375l0 -5.796875q-1.0 -1.8125 -2.984375 -1.8125q-1.578125 0 -2.46875 1.234375q-0.890625 1.234375 -0.890625 3.640625zm14.152344 6.203125l-2.171875 0l0 -12.6875l2.171875 0l0 12.6875zm-2.34375 -16.046875q0 -0.53125 0.3125 -0.890625q0.328125 -0.359375 0.953125 -0.359375q0.640625 0 0.96875 0.359375q0.328125 0.359375 0.328125 0.890625q0 0.53125 -0.328125 0.890625q-0.328125 0.34375 -0.96875 0.34375q-0.625 0 -0.953125 -0.34375q-0.3125 -0.359375 -0.3125 -0.890625zm13.199219 12.6875q0 -0.890625 -0.671875 -1.375q-0.65625 -0.484375 -2.3125 -0.828125q-1.640625 -0.359375 -2.609375 -0.84375q-0.96875 -0.5 -1.4375 -1.171875q-0.453125 -0.6875 -0.453125 -1.625q0 -1.5625 1.3125 -2.640625q1.328125 -1.078125 3.375 -1.078125q2.15625 0 3.5 1.125q1.34375 1.109375 1.34375 2.84375l-2.1875 0q0 -0.890625 -0.75 -1.53125q-0.75 -0.65625 -1.90625 -0.65625q-1.1875 0 -1.859375 0.515625q-0.65625 0.515625 -0.65625 1.359375q0 0.78125 0.609375 1.1875q0.625 0.390625 2.25 0.75q1.625 0.359375 2.625 0.875q1.015625 0.5 1.5 1.21875q0.484375 0.703125 0.484375 1.71875q0 1.703125 -1.359375 2.734375q-1.359375 1.015625 -3.515625 1.015625q-1.53125 0 -2.703125 -0.53125q-1.171875 -0.546875 -1.84375 -1.515625q-0.65625 -0.96875 -0.65625 -2.09375l2.171875 0q0.0625 1.09375 0.875 1.734375q0.8125 0.640625 2.15625 0.640625q1.21875 0 1.96875 -0.5q0.75 -0.5 0.75 -1.328125zm7.921875 -12.390625l0 3.0625l2.375 0l0 1.6875l-2.375 0l0 7.859375q0 0.765625 0.3125 1.140625q0.328125 0.375 1.09375 0.375q0.375 0 1.03125 -0.140625l0 1.765625q-0.859375 0.234375 -1.671875 0.234375q-1.453125 0 -2.1875 -0.875q-0.734375 -0.890625 -0.734375 -2.5l0 -7.859375l-2.3125 0l0 -1.6875l2.3125 0l0 -3.0625l2.15625 0zm7.2617188 15.75l-2.171875 0l0 -12.6875l2.171875 0l0 12.6875zm-2.34375 -16.046875q0 -0.53125 0.3125 -0.890625q0.328125 -0.359375 0.953125 -0.359375q0.640625 0 0.96875 0.359375q0.328125 0.359375 0.328125 0.890625q0 0.53125 -0.328125 0.890625q-0.328125 0.34375 -0.96875 0.34375q-0.625 0 -0.953125 -0.34375q-0.3125 -0.359375 -0.3125 -0.890625zm10.902344 14.515625q1.15625 0 2.015625 -0.703125q0.875 -0.703125 0.96875 -1.765625l2.046875 0q-0.0625 1.09375 -0.75 2.078125q-0.6875 0.984375 -1.84375 1.578125q-1.15625 0.578125 -2.4375 0.578125q-2.59375 0 -4.125 -1.71875q-1.53125 -1.734375 -1.53125 -4.734375l0 -0.375q0 -1.84375 0.671875 -3.28125q0.6875 -1.453125 1.953125 -2.25q1.28125 -0.796875 3.015625 -0.796875q2.125 0 3.53125 1.28125q1.421875 1.28125 1.515625 3.3125l-2.046875 0q-0.09375 -1.21875 -0.9375 -2.015625q-0.828125 -0.796875 -2.0625 -0.796875q-1.65625 0 -2.5625 1.203125q-0.90625 1.1875 -0.90625 3.4375l0 0.40625q0 2.1875 0.890625 3.375q0.90625 1.1875 2.59375 1.1875zm14.859375 -1.828125q0 -0.890625 -0.671875 -1.375q-0.65625 -0.484375 -2.3125 -0.828125q-1.640625 -0.359375 -2.609375 -0.84375q-0.96875 -0.5 -1.4375 -1.171875q-0.453125 -0.6875 -0.453125 -1.625q0 -1.5625 1.3125 -2.640625q1.328125 -1.078125 3.375 -1.078125q2.15625 0 3.5 1.125q1.34375 1.109375 1.34375 2.84375l-2.1875 0q0 -0.890625 -0.75 -1.53125q-0.75 -0.65625 -1.90625 -0.65625q-1.1875 0 -1.859375 0.515625q-0.65625 0.515625 -0.65625 1.359375q0 0.78125 0.609375 1.1875q0.625 0.390625 2.25 0.75q1.625 0.359375 2.625 0.875q1.015625 0.5 1.5 1.21875q0.484375 0.703125 0.484375 1.71875q0 1.703125 -1.359375 2.734375q-1.359375 1.015625 -3.515625 1.015625q-1.53125 0 -2.703125 -0.53125q-1.171875 -0.546875 -1.84375 -1.515625q-0.65625 -0.96875 -0.65625 -2.09375l2.171875 0q0.0625 1.09375 0.875 1.734375q0.8125 0.640625 2.15625 0.640625q1.21875 0 1.96875 -0.5q0.75 -0.5 0.75 -1.328125z" fill-rule="nonzero"/><path fill="#000000" fill-opacity="0.0" d="m351.728 318.68234l0 -91.24411" fill-rule="evenodd"/><path stroke="#b7b7b7" stroke-width="3.0" stroke-linejoin="round" stroke-linecap="butt" stroke-dasharray="12.0,9.0" d="m351.72803 318.68234l0 -73.24411" fill-rule="evenodd"/><path fill="#b7b7b7" stroke="#b7b7b7" stroke-width="3.0" stroke-linecap="butt" d="m356.68323 245.43823l-4.9552 -13.614288l-4.9552 13.614288z" fill-rule="evenodd"/><path fill="#000000" fill-opacity="0.0" d="m596.056 317.9537l0 -90.55116" fill-rule="evenodd"/><path stroke="#b7b7b7" stroke-width="3.0" stroke-linejoin="round" stroke-linecap="butt" stroke-dasharray="12.0,9.0" d="m596.0561 317.9537l0 -72.55116" fill-rule="evenodd"/><path fill="#b7b7b7" stroke="#b7b7b7" stroke-width="3.0" stroke-linecap="butt" d="m601.0112 245.40254l-4.955139 -13.614304l-4.9552 13.614304z" fill-rule="evenodd"/></g></svg>